<?xml version="1.0" encoding="UTF-8"?>
<svg version="1.1" xmlns="http://www.w3.org/2000/svg" width="512" height="512">
<path d="M0 0 C5.82222588 5.69284309 9.59755574 11.70194443 12.3125 19.375 C14.17731462 24.62479166 16.34024468 27.94812382 20.171875 31.9296875 C27.30992117 39.84951968 28.30040406 50.68039477 28.125 60.88671875 C27.23951389 71.83354084 23.81369298 82.01455885 19.95678711 92.22485352 C18.01360746 97.59681097 17.012728 102.84839349 16.25 108.5 C14.36276472 122.25815258 9.52895126 137.43239136 -1.5625 146.5 C-5.14720203 149.73868832 -5.71889946 152.37471448 -6.09228516 157.00878906 C-6.23057294 160.26387066 -6.25075755 163.49223637 -6.1875 166.75 C-4.98996094 166.71519531 -3.79242188 166.68039063 -2.55859375 166.64453125 C18.41361249 166.21135545 36.85615279 170.35604512 52.8125 184.75 C53.410625 185.25660156 54.00875 185.76320312 54.625 186.28515625 C64.93399057 195.65069009 71.62822558 210.10429989 73.8125 223.75 C73.90015897 226.45752863 73.93902221 229.13813701 73.92602539 231.8449707 C73.92617142 232.64549362 73.92631744 233.44601654 73.9264679 234.27079773 C73.92577355 236.9058202 73.91800356 239.54077119 73.91015625 242.17578125 C73.90829037 244.00709494 73.90686727 245.83840914 73.90586853 247.66972351 C73.90205672 252.48163235 73.89223785 257.29351084 73.88116455 262.10540771 C73.87092169 267.01883534 73.86636475 271.93226789 73.86132812 276.84570312 C73.85061437 286.48048206 73.83355401 296.1152385 73.8125 305.75 C74.70557861 305.73428955 75.59865723 305.7185791 76.51879883 305.70239258 C79.83428756 305.65124561 83.14935675 305.61364188 86.46508789 305.58520508 C87.89972552 305.57012411 89.33431708 305.5496562 90.76879883 305.52368164 C92.83165859 305.48726563 94.89390858 305.47026757 96.95703125 305.45703125 C98.19815674 305.4413208 99.43928223 305.42561035 100.71801758 305.40942383 C103.8125 305.75 103.8125 305.75 105.48167515 306.82527924 C107.52622927 309.78223917 107.19358621 312.32217227 107.20018005 315.8861084 C107.20825836 316.98321207 107.20825836 316.98321207 107.21649987 318.10247946 C107.23083893 320.56002588 107.22366134 323.01703818 107.21655273 325.47460938 C107.22225317 327.23371312 107.22921616 328.99281317 107.23735046 330.75190735 C107.25533208 335.53488954 107.25410425 340.31768878 107.24840808 345.10069466 C107.24532378 349.08952778 107.25140012 353.07832538 107.25744683 357.06715345 C107.27150656 366.47432361 107.26991842 375.88140298 107.25854492 385.28857422 C107.24705875 395.00382198 107.26114447 404.71879386 107.2879414 414.43400526 C107.31006789 422.76697219 107.31674278 431.09985232 107.31086498 439.43284655 C107.3074873 444.41344335 107.30996424 449.39386323 107.32711601 454.37443542 C107.34253484 459.05633207 107.33868625 463.73781857 107.31981087 468.41969872 C107.31611105 470.14065152 107.31927375 471.86163437 107.32969666 473.58255959 C107.34281384 475.92681592 107.33144357 478.26969569 107.31370544 480.6138916 C107.31349616 481.92723732 107.31328688 483.24058304 107.31307125 484.59372711 C106.8125 487.75 106.8125 487.75 105.0931921 489.42332268 C102.4261407 490.97474499 100.88954087 491.12759143 97.82085514 491.13311005 C96.80927312 491.14216669 95.7976911 491.15122333 94.75545508 491.16055441 C93.64603298 491.15522648 92.53661089 491.14989856 91.39356995 491.14440918 C90.21353344 491.15050028 89.03349694 491.15659139 87.81770176 491.16286707 C84.54123641 491.17665181 81.26508852 491.17694355 77.98860872 491.1714921 C74.45545955 491.16882508 70.92237489 491.18334747 67.38925171 491.19558716 C60.46718289 491.21665693 53.5451978 491.22118114 46.62310071 491.21939927 C40.99775133 491.21809248 35.37242812 491.22189155 29.74708366 491.22932434 C28.12771366 491.2314235 26.50834366 491.2335211 24.88897365 491.23561716 C24.08301091 491.23666069 23.27704816 491.23770422 22.4466623 491.23877937 C7.19877936 491.25768781 -8.04905548 491.25662962 -23.29694528 491.24981004 C-37.25138599 491.24423349 -51.20564316 491.26506362 -65.16004097 491.29817051 C-79.48311476 491.33188877 -93.80610059 491.34707822 -108.12921482 491.34245348 C-116.17270741 491.34020697 -124.21603033 491.34547833 -132.25948906 491.37034607 C-139.10678189 491.39133515 -145.95381204 491.39497516 -152.80111557 491.37604648 C-156.29552355 491.36687378 -159.78944145 491.36579146 -163.28381157 491.38640213 C-167.07018904 491.40447463 -170.85525003 491.39193245 -174.6415863 491.37145996 C-175.74877768 491.38397781 -176.85596905 491.39649566 -177.99671167 491.40939283 C-182.69546776 491.35469853 -185.37756494 491.28066565 -189.37027836 488.66465855 C-191.64668828 485.01350369 -191.81133558 482.78865969 -191.80895996 478.4940033 C-191.81534878 477.77384822 -191.8217376 477.05369314 -191.82832003 476.31171519 C-191.84355472 473.90377419 -191.82312108 471.49748273 -191.80273438 469.08959961 C-191.80623603 467.36137853 -191.81189511 465.63316068 -191.81954956 463.904953 C-191.83379984 459.21483339 -191.81673438 454.52529988 -191.79326439 449.83523631 C-191.77316377 444.92837281 -191.77903448 440.02153383 -191.78137207 435.11463928 C-191.78131849 426.87540005 -191.7615583 418.63639013 -191.72949219 410.3972168 C-191.69258702 400.86828811 -191.68381827 391.33965971 -191.6907897 381.81066889 C-191.69709194 372.64668782 -191.68634637 363.48280983 -191.66682434 354.31884956 C-191.65864448 350.41741023 -191.65594187 346.51602354 -191.65751648 342.61457634 C-191.65839457 338.02213639 -191.64419972 333.4299824 -191.61828995 328.83761787 C-191.61112002 327.1509604 -191.60904849 325.46427252 -191.61240768 323.77760315 C-191.61611481 321.47776156 -191.60140275 319.17875807 -191.58190918 316.87901306 C-191.57818047 315.5913098 -191.57445175 314.30360655 -191.57061005 312.97688198 C-191.16370527 309.54958033 -190.67469233 308.10910835 -188.1875 305.75 C-185.09301758 305.29589844 -185.09301758 305.29589844 -181.33203125 305.359375 C-180.67039474 305.36503479 -180.00875824 305.37069458 -179.32707214 305.37652588 C-177.21730668 305.39888753 -175.10925048 305.44907629 -173 305.5 C-171.56838394 305.5200656 -170.1367412 305.53831628 -168.70507812 305.5546875 C-165.19866485 305.59874931 -161.69324928 305.66777223 -158.1875 305.75 C-158.19416183 304.81864731 -158.20082367 303.88729462 -158.20768738 302.92771912 C-158.26888754 294.08802732 -158.31365744 285.24837933 -158.34293652 276.40852261 C-158.35849592 271.8654379 -158.37955304 267.3225262 -158.41381836 262.77954102 C-158.4467631 258.38340147 -158.46442582 253.98742678 -158.47213173 249.59117317 C-158.47761299 247.9261014 -158.48831342 246.26103716 -158.50469017 244.59603691 C-158.69044387 224.90132223 -155.52644587 207.74173405 -143.1875 191.75 C-142.424375 190.71875 -141.66125 189.6875 -140.875 188.625 C-128.80173693 175.70941625 -111.75338563 167.29159872 -93.94213867 166.671875 C-91.54392365 166.65215892 -89.1481506 166.66237836 -86.75 166.6875 C-85.92306641 166.69201172 -85.09613281 166.69652344 -84.24414062 166.70117188 C-82.22522854 166.71284189 -80.20635426 166.73077282 -78.1875 166.75 C-77.63794467 156.03887885 -77.63794467 156.03887885 -80.75390625 146.11328125 C-82.11757888 144.75494589 -83.51000453 143.42503174 -84.92578125 142.12109375 C-94.66366007 131.91229851 -98.98391266 115.08576662 -99.5625 101.375 C-99.86292802 95.9453131 -101.63118576 92.72755968 -104.625 88.265625 C-112.08087683 76.2616633 -113.05702463 60.59548571 -110.46875 46.96484375 C-109.5333524 43.80033332 -108.45658687 40.79497081 -107.1875 37.75 C-106.67896484 36.48349609 -106.67896484 36.48349609 -106.16015625 35.19140625 C-97.05046235 14.92963156 -78.86354974 1.17470746 -58.71484375 -6.99609375 C-37.70541741 -14.46456092 -18.26611284 -12.89372671 0 0 Z M-76.1875 17.75 C-76.99058594 18.389375 -77.79367188 19.02875 -78.62109375 19.6875 C-90.18220917 29.35750548 -98.02615004 43.03736565 -99.40625 58.14453125 C-99.65112176 64.62343 -98.4832389 70.68419447 -96.1875 76.75 C-95.5275 77.41 -94.8675 78.07 -94.1875 78.75 C-91.73182054 69.31562216 -89.74908009 60.49669963 -89.65625 50.703125 C-89.06711344 46.99156467 -87.81520794 45.39621292 -85.1875 42.75 C-80.02968971 39.70616641 -74.82540334 40.09920007 -69.18115234 41.49169922 C-65.88755468 42.4930936 -62.63108832 43.57030841 -59.375 44.6875 C-57.16041167 45.42654706 -54.94557812 46.16485983 -52.73046875 46.90234375 C-51.2767688 47.3972229 -51.2767688 47.3972229 -49.79370117 47.90209961 C-37.99689514 51.74006751 -24.41048759 50.98150287 -13.1875 45.75 C-11.88288498 45.02275697 -10.58909668 44.27537326 -9.3125 43.5 C-5.81040525 41.53882694 -4.12289957 40.98003052 -0.1875 41.75 C7.88343726 48.04926811 10.98411192 57.26936955 13.8125 66.75 C14.1425 66.75 14.4725 66.75 14.8125 66.75 C15.43276188 49.85059281 15.43276188 49.85059281 6.8125 35.75 C6.06419922 35.11384766 6.06419922 35.11384766 5.30078125 34.46484375 C3.23229201 32.08146638 2.52363354 29.60092432 1.5 26.625 C-2.45515382 16.09352532 -7.16268532 9.26670442 -17.1875 3.75 C-37.64089698 -4.18146337 -60.07637978 4.60213064 -76.1875 17.75 Z M-77.1875 51.75 C-77.27725098 52.38276855 -77.36700195 53.01553711 -77.45947266 53.66748047 C-79.15917818 65.37068328 -80.91987418 76.72038589 -85.25634766 87.77490234 C-89.38984811 98.6761791 -86.82699737 110.99403132 -82.375 121.5 C-81.67310587 122.93037516 -80.9425825 124.34697509 -80.1875 125.75 C-79.52234375 126.99910156 -79.52234375 126.99910156 -78.84375 128.2734375 C-72.59446728 139.34264573 -64.00701527 146.90130471 -51.6875 150.625 C-40.61348108 153.21514168 -30.48431222 151.72259452 -20.41796875 146.2421875 C-6.78311494 137.23606286 0.77964744 124.04031808 4.12109375 108.22265625 C6.92231666 92.31328425 6.12846617 70.99720675 -2.1875 56.75 C-3.1775 56.09 -4.1675 55.43 -5.1875 54.75 C-7.80577657 55.5588239 -7.80577657 55.5588239 -10.625 57 C-31.93112017 66.43226309 -52.48663736 59.70867106 -73.27075195 52.3449707 C-75.17135481 51.65118241 -75.17135481 51.65118241 -77.1875 51.75 Z M-65.1875 158.75 C-66.7964684 172.64526396 -62.11079048 183.66618849 -57 196.375 C-56.22098346 198.36367459 -55.44427534 200.35325506 -54.66992188 202.34375 C-53.19075564 206.13686999 -51.69604621 209.9231597 -50.18603516 213.70410156 C-48.95464887 216.7936142 -47.74903713 219.8889761 -46.59130859 223.00683594 C-46.15254395 224.18793945 -45.7137793 225.36904297 -45.26171875 226.5859375 C-44.90037842 227.57899902 -44.53903809 228.57206055 -44.16674805 229.59521484 C-43.38614146 231.91287008 -43.38614146 231.91287008 -41.1875 232.75 C-40.49327751 230.9467842 -39.79907708 229.1435599 -39.10496521 227.34030151 C-38.48440173 225.72828344 -37.86367999 224.11632629 -37.24281311 222.50442505 C-35.52875316 218.053027 -33.81845681 213.60023898 -32.11499023 209.14477539 C-26.27815487 193.89253632 -26.27815487 193.89253632 -23.41015625 186.9765625 C-19.39629183 177.21510542 -16.88851167 169.4846952 -18.1875 158.75 C-19.00089844 159.03875 -19.81429687 159.3275 -20.65234375 159.625 C-34.46405985 164.09943671 -47.27035876 164.08927021 -61.1875 159.75 C-62.51946169 159.41122731 -63.85259532 159.07698378 -65.1875 158.75 Z M-95.1875 179.75 C-94.5275 184.37 -93.8675 188.99 -93.1875 193.75 C-90.84011719 194.05744141 -90.84011719 194.05744141 -88.4453125 194.37109375 C-86.40101667 194.64304136 -84.35674719 194.91518702 -82.3125 195.1875 C-81.27996094 195.32220703 -80.24742187 195.45691406 -79.18359375 195.59570312 C-78.19746094 195.72783203 -77.21132812 195.85996094 -76.1953125 195.99609375 C-75.28410645 196.11654053 -74.37290039 196.2369873 -73.43408203 196.36108398 C-71.1875 196.75 -71.1875 196.75 -69.1875 197.75 C-71.12695014 191.53494386 -73.4648384 185.66474762 -76.1875 179.75 C-82.4575 179.75 -88.7275 179.75 -95.1875 179.75 Z M-8.1875 179.75 C-9.1775 182.18375 -10.1675 184.6175 -11.1875 187.125 C-11.50074219 187.88989746 -11.81398438 188.65479492 -12.13671875 189.44287109 C-13.66043635 192.98276033 -13.66043635 192.98276033 -14.1875 196.75 C-6.2675 195.76 1.6525 194.77 9.8125 193.75 C10.1425 189.13 10.4725 184.51 10.8125 179.75 C4.5425 179.75 -1.7275 179.75 -8.1875 179.75 Z M22.8125 181.75 C22.77286133 182.30461914 22.73322266 182.85923828 22.69238281 183.43066406 C22.50124309 185.95560923 22.28217628 188.47738407 22.0625 191 C21.9696875 192.30904297 21.9696875 192.30904297 21.875 193.64453125 C21.53612628 197.34390266 21.21969041 200.06714063 19.30078125 203.28515625 C15.58882137 205.47037596 11.99248468 205.63759441 7.75 205.9375 C6.13389046 206.07419859 4.51799175 206.21341917 2.90234375 206.35546875 C1.83294556 206.43510864 1.83294556 206.43510864 0.74194336 206.51635742 C-1.40342371 206.71092545 -1.40342371 206.71092545 -4.1875 207.75 C-4.25324219 209.05324219 -4.31898438 210.35648438 -4.38671875 211.69921875 C-5.79155477 230.24037189 -11.87878426 246.54073654 -18.34423828 263.8046875 C-21.17485374 271.37157861 -23.89334714 278.97913434 -26.62774658 286.58117676 C-27.48897056 288.96941455 -28.35555674 291.35563393 -29.22412109 293.74121094 C-29.49096207 294.47537231 -29.75780304 295.20953369 -30.0327301 295.96594238 C-30.53308862 297.34195564 -31.03460757 298.71754765 -31.53746033 300.09265137 C-32.69803993 302.85133365 -32.69803993 302.85133365 -33.1875 305.75 C-16.3575 305.75 0.4725 305.75 17.8125 305.75 C17.88597656 297.66371094 17.88597656 297.66371094 17.9609375 289.4140625 C17.99631001 286.00518919 18.03226202 282.59634189 18.0703125 279.1875 C18.1306935 273.77314924 18.1888914 268.35883501 18.234375 262.94433594 C18.27116604 258.58057022 18.31750872 254.21700223 18.37056351 249.853405 C18.38914045 248.18602328 18.40423613 246.51859913 18.41584396 244.85115433 C18.43265033 242.52116767 18.46167067 240.19163712 18.49365234 237.86181641 C18.49581253 237.16770157 18.49797272 236.47358673 18.50019836 235.75843811 C18.58439568 230.97810432 18.58439568 230.97810432 20.8125 228.75 C23.8125 228.5 23.8125 228.5 26.8125 228.75 C29.60066707 231.53816707 29.11973087 234.12909127 29.13134766 237.86181641 C29.14139328 238.59362625 29.1514389 239.3254361 29.16178894 240.079422 C29.19273236 242.50346068 29.20968674 244.92738838 29.2265625 247.3515625 C29.24526521 249.03023237 29.26483794 250.70889275 29.2852478 252.38754272 C29.33666995 256.80979835 29.37624152 261.23208449 29.41339111 265.65447998 C29.45336774 270.16556407 29.50448892 274.67652013 29.5546875 279.1875 C29.65156616 288.04158587 29.73490285 296.89572413 29.8125 305.75 C40.3725 305.75 50.9325 305.75 61.8125 305.75 C61.88059443 295.93497408 61.93549854 286.12010807 61.96793652 276.30489826 C61.9835143 271.74606275 62.00460626 267.18739888 62.03881836 262.62866211 C62.07169596 258.21956409 62.08941213 253.81062994 62.09713173 249.40141869 C62.10262476 247.72911186 62.1133494 246.05681281 62.12969017 244.3845768 C62.30326479 225.86544351 59.26564159 209.84992989 46.19995117 195.91796875 C39.35602972 189.00375277 31.84672894 184.99231646 22.8125 181.75 Z M-130.1875 195.75 C-139.68433005 206.71043959 -145.56030179 219.42195267 -145.41455078 234.00195312 C-145.41484283 234.78340698 -145.41513489 235.56486084 -145.41543579 236.36999512 C-145.41405505 238.92386422 -145.3985538 241.47743259 -145.3828125 244.03125 C-145.37907789 245.81343425 -145.37623304 247.59562057 -145.37423706 249.37780762 C-145.36663585 254.04668949 -145.34701785 258.71544505 -145.3248291 263.38427734 C-145.30429468 268.15720919 -145.29521916 272.93016163 -145.28515625 277.703125 C-145.26376835 287.05214749 -145.22861517 296.40104343 -145.1875 305.75 C-134.9575 305.75 -124.7275 305.75 -114.1875 305.75 C-114.16244385 303.55432373 -114.1373877 301.35864746 -114.11157227 299.09643555 C-114.02815634 291.84802885 -113.93946294 284.59969369 -113.84816074 277.35138226 C-113.79295817 272.95604141 -113.73954239 268.56069388 -113.69018555 264.1652832 C-113.64250272 259.924769 -113.59015843 255.68433577 -113.53455925 251.44391823 C-113.51415347 249.8247968 -113.49543744 248.20565318 -113.47842598 246.58649254 C-113.45434264 244.321496 -113.4242935 242.05665229 -113.39282227 239.79174805 C-113.37727798 238.50157272 -113.3617337 237.2113974 -113.34571838 235.88212585 C-113.1875 232.75 -113.1875 232.75 -112.1875 229.75 C-105.74317612 228.41249882 -105.74317612 228.41249882 -103.48405457 229.78462219 C-101.51204104 232.77389216 -101.78530595 235.32845887 -101.75512695 238.88354492 C-101.73983948 239.96684837 -101.73983948 239.96684837 -101.72424316 241.07203674 C-101.69405805 243.45825909 -101.68483913 245.84408039 -101.67578125 248.23046875 C-101.65893859 249.88529297 -101.64078891 251.54010436 -101.62138367 253.19490051 C-101.57383241 257.54975375 -101.54405636 261.90455499 -101.51794434 266.25958252 C-101.48292847 271.48516416 -101.42590126 276.71054606 -101.37255096 281.93596649 C-101.29397691 289.87395262 -101.24341727 297.81167622 -101.1875 305.75 C-84.6875 305.75 -68.1875 305.75 -51.1875 305.75 C-51.98015508 300.99406951 -53.04965435 296.94218793 -54.70703125 292.484375 C-54.96185272 291.7859549 -55.21667419 291.08753479 -55.47921753 290.36795044 C-56.02889313 288.86250443 -56.58076325 287.35785822 -57.13461304 285.85394287 C-58.01234512 283.46642 -58.88109507 281.07580416 -59.74731445 278.68408203 C-62.40460622 271.35171016 -65.0803962 264.02694466 -67.80343628 256.71871948 C-78.61305721 227.63631452 -78.61305721 227.63631452 -79.1875 211.75 C-79.48790129 209.46023768 -79.48790129 209.46023768 -80.1875 207.75 C-82.42404605 206.63172698 -83.9494262 206.51302938 -86.43359375 206.3203125 C-87.27083984 206.24683594 -88.10808594 206.17335937 -88.97070312 206.09765625 C-90.7357203 205.94959741 -92.50137374 205.80893191 -94.26757812 205.67578125 C-95.52538086 205.56169922 -95.52538086 205.56169922 -96.80859375 205.4453125 C-97.5761499 205.38359863 -98.34370605 205.32188477 -99.13452148 205.25830078 C-101.68528482 204.62675253 -102.62381211 203.84704346 -104.1875 201.75 C-104.69580078 199.88061523 -104.69580078 199.88061523 -104.8828125 197.80859375 C-104.95886719 197.06029297 -105.03492188 196.31199219 -105.11328125 195.54101562 C-105.17902344 194.76435547 -105.24476563 193.98769531 -105.3125 193.1875 C-105.60805123 187.80439281 -105.60805123 187.80439281 -107.1875 182.75 C-115.75130518 182.75 -124.29816477 190.09199708 -130.1875 195.75 Z M-16.1875 200.75 C-15.1875 202.75 -15.1875 202.75 -15.1875 202.75 Z M-68.1875 201.75 C-68.06956792 203.79208712 -67.94260786 205.83365247 -67.8125 207.875 C-67.74289063 209.01195312 -67.67328125 210.14890625 -67.6015625 211.3203125 C-66.65167417 222.41328429 -64.66157849 232.44141903 -60.72265625 242.8671875 C-60.07169228 244.64018723 -60.07169228 244.64018723 -59.40757751 246.44900513 C-58.26617997 249.55009639 -57.113089 252.64647152 -55.95379639 255.74090576 C-54.77993209 258.8833927 -53.62218418 262.03180304 -52.46289062 265.1796875 C-49.06810133 274.38115772 -45.63471749 283.56806174 -42.1875 292.75 C-40.28683017 289.89899526 -39.29318908 287.55657733 -38.15625 284.34814453 C-37.76244141 283.24334747 -37.36863281 282.13855042 -36.96289062 281.00027466 C-36.54201172 279.80651215 -36.12113281 278.61274963 -35.6875 277.3828125 C-35.02080788 275.50827947 -34.35411501 273.6337467 -33.68737793 271.75922966 C-32.7542329 269.13236935 -31.82491696 266.50416052 -30.89550781 263.87597656 C-29.2709676 259.2846898 -27.64021969 254.69560401 -26.00976562 250.10641479 C-25.142451 247.66398971 -24.27651771 245.22107358 -23.41210938 242.77761841 C-23.01830078 241.66651703 -22.62449219 240.55541565 -22.21875 239.41064453 C-21.70151367 237.94862106 -21.70151367 237.94862106 -21.17382812 236.45706177 C-20.52081595 234.66481409 -19.82976612 232.88593494 -19.10009766 231.12350464 C-17.84021756 227.84677998 -17.46148565 224.52638364 -17.0625 221.0625 C-16.93512451 220.00772461 -16.93512451 220.00772461 -16.80517578 218.93164062 C-16.18953167 213.52586412 -15.9520798 208.19082233 -16.1875 202.75 C-17.92839039 205.36133558 -18.93066294 207.4403984 -20.01928711 210.34155273 C-20.36982651 211.26939072 -20.72036591 212.1972287 -21.08152771 213.15318298 C-21.455522 214.15321854 -21.8295163 215.15325409 -22.21484375 216.18359375 C-23.0148328 218.29757947 -23.81496751 220.41151006 -24.61523438 222.52539062 C-25.87270579 225.86020975 -27.12810934 229.19578332 -28.38061523 232.5324707 C-29.59062841 235.7516431 -30.80852494 238.96774694 -32.02734375 242.18359375 C-32.39931381 243.18160507 -32.77128387 244.17961639 -33.15452576 245.20787048 C-33.50821732 246.13886063 -33.86190887 247.06985077 -34.22631836 248.02905273 C-34.53339218 248.84607162 -34.840466 249.66309052 -35.15684509 250.50486755 C-36.2412899 252.8671735 -37.55796208 254.73300208 -39.1875 256.75 C-42.6525 256.255 -42.6525 256.255 -46.1875 255.75 C-48.375 250.125 -50.5625 244.5 -52.75 238.875 C-53.05623291 238.08754395 -53.36246582 237.30008789 -53.67797852 236.48876953 C-54.29129028 234.91168213 -54.90460205 233.33459473 -55.51791382 231.75750732 C-55.82266632 230.97385803 -56.12741882 230.19020874 -56.44140625 229.3828125 C-57.06005859 227.79199219 -57.67871094 226.20117188 -58.29736328 224.61035156 C-58.75988495 223.42101013 -58.75988495 223.42101013 -59.23175049 222.2076416 C-59.887146 220.52233887 -60.5425415 218.83703613 -61.19793701 217.1517334 C-61.5333551 216.28922974 -61.86877319 215.42672607 -62.21435547 214.53808594 C-62.86035156 212.87695312 -63.50634766 211.21582031 -64.15234375 209.5546875 C-64.60994835 208.37798996 -64.60994835 208.37798996 -65.07679749 207.17752075 C-65.78036499 205.36834717 -66.4839325 203.55917358 -67.1875 201.75 C-67.5175 201.75 -67.8475 201.75 -68.1875 201.75 Z M-178.1875 317.75 C-178.1875 327.32 -178.1875 336.89 -178.1875 346.75 C-88.0975 346.75 1.9925 346.75 94.8125 346.75 C94.8125 337.18 94.8125 327.61 94.8125 317.75 C4.7225 317.75 -85.3675 317.75 -178.1875 317.75 Z M-178.1875 358.75 C-178.1875 398.02 -178.1875 437.29 -178.1875 477.75 C-88.0975 477.75 1.9925 477.75 94.8125 477.75 C94.8125 438.48 94.8125 399.21 94.8125 358.75 C4.7225 358.75 -85.3675 358.75 -178.1875 358.75 Z " fill="#000000" transform="translate(298.1875,17.25)"/>
<path d="M0 0 C1.56649796 -0.0129007 1.56649796 -0.0129007 3.16464233 -0.02606201 C4.88287453 -0.03245193 4.88287453 -0.03245193 6.63581848 -0.03897095 C7.84260254 -0.04714844 9.0493866 -0.05532593 10.29273987 -0.06375122 C14.29617481 -0.08861323 18.29957198 -0.1052778 22.30305481 -0.11953735 C23.68319009 -0.1248987 25.06332531 -0.13027621 26.44346046 -0.13566971 C32.18676822 -0.15729576 37.93007321 -0.17603034 43.67341137 -0.1872921 C51.89313924 -0.20351764 60.11239341 -0.23666387 68.33194274 -0.29369295 C74.11721837 -0.33245778 79.90236766 -0.35193259 85.68776971 -0.35721266 C89.14004572 -0.36085786 92.59181614 -0.3727885 96.04395103 -0.4053154 C99.90023385 -0.44112939 103.75592758 -0.43700852 107.61238098 -0.42959595 C108.74774796 -0.44600128 109.88311493 -0.46240662 111.05288696 -0.47930908 C117.87565551 -0.42568719 122.86769708 0.34708548 127.94758606 5.15390015 C131.99096019 9.90040531 132.53323996 14.56778493 132.48103333 20.62435913 C132.4896489 21.44158447 132.49826447 22.25880981 132.50714111 23.10079956 C132.52971908 25.78419276 132.52307735 28.46653459 132.51399231 31.1499939 C132.51923168 33.02654834 132.52550931 34.90310014 132.53277588 36.77964783 C132.54316512 40.70603864 132.53864009 44.6320667 132.52400208 48.55844116 C132.50682006 53.57660622 132.53030997 58.59362561 132.56549168 63.61166286 C132.58750991 67.48517872 132.58601345 71.35842234 132.57772636 75.23198128 C132.5769092 77.08145466 132.58372749 78.9309485 132.59849739 80.78036308 C132.61602501 83.37229573 132.60133427 85.96219375 132.57868958 88.55404663 C132.59622787 89.68662651 132.59622787 89.68662651 132.61412048 90.84208679 C132.51223619 96.60769169 130.66939361 100.73701691 126.94758606 105.15390015 C123.79080468 107.62012629 121.04560874 109.15390015 116.94758606 109.15390015 C117.16487366 110.12738403 117.38216125 111.10086792 117.60603333 112.10385132 C118.41185796 115.72651036 119.20449471 119.35195062 119.99324036 122.97836304 C120.33601823 124.54555578 120.68233679 126.11197855 121.03230286 127.67758179 C121.53560561 129.93206312 122.02598258 132.18903439 122.51399231 134.4468689 C122.67227005 135.14289719 122.83054779 135.83892548 122.99362183 136.55604553 C123.98341419 141.21703026 124.32550355 144.85737099 121.82258606 149.02890015 C119.45909763 150.4469932 117.6628012 150.5630988 114.96711731 150.05233765 C111.30645114 148.42380144 108.8887504 145.43433873 106.18977356 142.54452515 C104.24996916 140.47630164 102.28740081 138.61863807 100.13508606 136.77890015 C96.7188592 133.84488424 93.38540861 130.82860099 90.07258606 127.77890015 C86.20756613 124.22613717 82.33890915 120.67790071 78.44758606 117.15390015 C77.28742981 116.10202515 77.28742981 116.10202515 76.10383606 115.02890015 C75.39227356 114.41015015 74.68071106 113.79140015 73.94758606 113.15390015 C73.39251373 112.62816406 72.83744141 112.10242798 72.26554871 111.5607605 C69.00898285 109.58422589 66.49898539 109.77510725 62.70393372 109.76913452 C61.98146957 109.76376175 61.25900543 109.75838898 60.51464844 109.75285339 C58.94924719 109.74308631 57.38379187 109.74012803 55.81836319 109.74320984 C53.3377685 109.74769331 50.85788522 109.73367258 48.37736511 109.71481323 C43.10911702 109.6780452 37.84094356 109.66432732 32.57258606 109.65390015 C26.47313866 109.64181048 20.37403786 109.62020118 14.27474594 109.57389832 C11.83625828 109.56035623 9.39821188 109.56449415 6.95970154 109.56930542 C5.4564712 109.55996069 3.95324568 109.54979084 2.45002747 109.53866577 C1.14304901 109.53661133 -0.16392944 109.53455688 -1.51051331 109.53244019 C-6.90046656 108.95638983 -10.04187171 107.18740925 -13.80241394 103.34140015 C-17.65607404 97.88204834 -18.35012569 92.90409136 -18.32707214 86.3477478 C-18.33218307 85.58918991 -18.33729401 84.83063202 -18.34255981 84.04908752 C-18.3563966 81.55529772 -18.3555034 79.06178615 -18.35319519 76.56796265 C-18.35708562 74.82450255 -18.36142101 73.08104339 -18.36618042 71.33758545 C-18.37363011 67.68778406 -18.37336063 64.03807943 -18.36808777 60.38827515 C-18.36229753 55.72570926 -18.37921938 51.06354119 -18.40243244 46.40104103 C-18.41721039 42.80122588 -18.41803592 39.20150561 -18.41492271 35.6016655 C-18.41543397 33.88337797 -18.42063486 32.16508486 -18.43073463 30.44682693 C-18.4431597 28.03724048 -18.43627148 25.62841706 -18.42472839 23.21884155 C-18.43237213 22.51832169 -18.44001587 21.81780182 -18.44789124 21.09605408 C-18.38638992 15.24742424 -17.15416175 9.67122082 -13.33366394 5.0953064 C-12.74585144 4.64026733 -12.15803894 4.18522827 -11.55241394 3.71640015 C-10.67069519 3.00677124 -10.67069519 3.00677124 -9.77116394 2.2828064 C-6.54952427 0.16677489 -3.74094369 0.02294168 0 0 Z M-5.05241394 15.15390015 C-5.45036886 17.80562445 -5.58958603 20.04601551 -5.55412292 22.69882202 C-5.55952591 23.4649733 -5.56492889 24.23112457 -5.57049561 25.02049255 C-5.58301076 27.55493716 -5.56647431 30.0882519 -5.54850769 32.62265015 C-5.54866261 34.38237569 -5.5501505 36.14210158 -5.55291748 37.90182495 C-5.55430272 41.59065832 -5.54172282 45.27910346 -5.51896667 48.96786499 C-5.49058152 53.69943572 -5.49331763 58.4303612 -5.50605679 63.16197968 C-5.51300738 66.79594446 -5.50523181 70.42975975 -5.49279976 74.06370544 C-5.48827921 75.80844042 -5.48795371 77.55319141 -5.49186516 79.29792786 C-5.49477135 81.73528003 -5.47829968 84.17173889 -5.45646667 86.60897827 C-5.46096832 87.33218765 -5.46546997 88.05539703 -5.47010803 88.80052185 C-5.42931407 91.53740918 -5.30956249 93.68343289 -3.98306274 96.1103363 C-0.99911937 97.72323214 1.94268323 97.49171958 5.24201965 97.39584351 C5.98235443 97.38675964 6.72268921 97.37767578 7.48545837 97.36831665 C9.09462792 97.34796335 10.70372844 97.32143814 12.31270981 97.2895031 C14.87073694 97.2432975 17.4276624 97.22331133 19.98606873 97.2118988 C27.26039988 97.17890261 34.53342391 97.13260405 41.80647278 96.98617554 C46.25861109 96.89846508 50.70785396 96.87060129 55.16080093 96.88000679 C56.84727793 96.87258767 58.53381832 96.84366063 60.21950912 96.79163933 C68.57345781 96.54232923 75.04165126 96.61486174 81.57238197 102.29870701 C83.67671201 104.3386124 85.66013378 106.45372004 87.5934639 108.65570259 C89.6645359 110.94713176 91.95605427 112.97609908 94.26008606 115.02890015 C95.04770325 115.73659546 95.83532043 116.44429077 96.64680481 117.1734314 C99.94943289 120.01627085 103.39948929 122.62662452 106.94758606 125.15390015 C106.456358 120.73284757 105.82413536 116.44033058 104.88508606 112.09140015 C104.04278363 107.98121761 103.59857251 104.34206276 103.94758606 100.15390015 C106.83122313 97.27026307 109.49276768 97.82256582 113.43977356 97.69296265 C116.81385238 96.96769337 117.84357293 95.88261278 119.94758606 93.15390015 C120.3425955 90.52743389 120.49554519 88.31896147 120.46516418 85.69491577 C120.47217346 84.9497319 120.47918274 84.20454803 120.48640442 83.43678284 C120.50398647 80.97752439 120.4923618 78.51941996 120.47883606 76.06015015 C120.48153094 74.34908833 120.48541332 72.63802801 120.49043274 70.92697144 C120.49632804 67.3424724 120.48776405 63.75837231 120.46907043 60.17391968 C120.44628057 55.58023575 120.45940352 50.9874866 120.48336029 46.39383698 C120.49781758 42.86104291 120.49321267 39.32847031 120.48284912 35.79566956 C120.48018163 34.10199371 120.48345241 32.40829772 120.49276733 30.71464539 C120.50293218 28.34685038 120.48743485 25.98056698 120.46516418 23.61288452 C120.47326111 22.91354294 120.48135803 22.21420135 120.48970032 21.4936676 C120.43727933 18.48388396 120.06466771 16.36717185 118.61091614 13.71907043 C114.2407343 11.15082746 109.79073533 11.60738973 104.81672668 11.65219116 C103.68139999 11.64678818 102.5460733 11.64138519 101.37634277 11.63581848 C97.61857643 11.62329782 93.86157121 11.63984543 90.10383606 11.6578064 C87.49596618 11.65765149 84.88809607 11.65616386 82.28022766 11.65339661 C76.81264842 11.65069529 71.34528881 11.66416306 65.87776184 11.68734741 C59.55880168 11.71395688 53.24020871 11.71570408 46.92121172 11.70395905 C40.83963241 11.69317531 34.75820707 11.69947387 28.67663574 11.71351433 C26.08981717 11.71803646 23.50298779 11.71835901 20.91616821 11.71444893 C17.30336735 11.71154453 13.69117011 11.72800785 10.07844543 11.74984741 C8.46838875 11.74309494 8.46838875 11.74309494 6.82580566 11.73620605 C5.84163162 11.74611069 4.85745758 11.75601532 3.84346008 11.76622009 C2.9895443 11.76864999 2.13562851 11.77107988 1.25583649 11.77358341 C-1.60866547 12.24555041 -2.9844054 13.13483175 -5.05241394 15.15390015 Z " fill="#000000" transform="translate(38.05241394042969,40.846099853515625)"/>
<path d="M0 0 C1.56649796 -0.0129007 1.56649796 -0.0129007 3.16464233 -0.02606201 C4.88287453 -0.03245193 4.88287453 -0.03245193 6.63581848 -0.03897095 C7.84260254 -0.04714844 9.0493866 -0.05532593 10.29273987 -0.06375122 C14.29617481 -0.08861323 18.29957198 -0.1052778 22.30305481 -0.11953735 C23.68319009 -0.1248987 25.06332531 -0.13027621 26.44346046 -0.13566971 C32.18676822 -0.15729576 37.93007321 -0.17603034 43.67341137 -0.1872921 C51.89313924 -0.20351764 60.11239341 -0.23666387 68.33194274 -0.29369295 C74.11721837 -0.33245778 79.90236766 -0.35193259 85.68776971 -0.35721266 C89.14004572 -0.36085786 92.59181614 -0.3727885 96.04395103 -0.4053154 C99.90023385 -0.44112939 103.75592758 -0.43700852 107.61238098 -0.42959595 C108.74774796 -0.44600128 109.88311493 -0.46240662 111.05288696 -0.47930908 C117.87565551 -0.42568719 122.86769708 0.34708548 127.94758606 5.15390015 C131.99096019 9.90040531 132.53323996 14.56778493 132.48103333 20.62435913 C132.4896489 21.44158447 132.49826447 22.25880981 132.50714111 23.10079956 C132.52971908 25.78419276 132.52307735 28.46653459 132.51399231 31.1499939 C132.51923168 33.02654834 132.52550931 34.90310014 132.53277588 36.77964783 C132.54316512 40.70603864 132.53864009 44.6320667 132.52400208 48.55844116 C132.50682006 53.57660622 132.53030997 58.59362561 132.56549168 63.61166286 C132.58750991 67.48517872 132.58601345 71.35842234 132.57772636 75.23198128 C132.5769092 77.08145466 132.58372749 78.9309485 132.59849739 80.78036308 C132.61602501 83.37229573 132.60133427 85.96219375 132.57868958 88.55404663 C132.59622787 89.68662651 132.59622787 89.68662651 132.61412048 90.84208679 C132.51157282 96.64523145 130.78450318 100.77219498 126.94758606 105.15390015 C122.49496689 108.93107643 118.19330981 109.62223765 112.44612122 109.44589233 C111.73113464 109.43052933 111.01614807 109.41516632 110.27949524 109.39933777 C108.73686164 109.36532749 107.194394 109.32294479 105.65219498 109.27297211 C103.19347899 109.19948487 100.73667519 109.16211748 98.27702332 109.13589478 C91.28821756 109.0605972 84.30195236 108.96722925 77.3162384 108.73934937 C55.12252403 107.10837927 55.12252403 107.10837927 35.62419128 115.62319946 C33.0413188 118.30571917 30.7563113 121.09780506 28.56690979 124.10765076 C25.79750011 127.60719984 22.36285614 130.3100707 18.94758606 133.15390015 C17.89862089 134.10555221 16.85645031 135.06477009 15.82258606 136.0328064 C0.72966625 150.12089866 0.72966625 150.12089866 -4.42741394 150.21640015 C-7.05241394 149.15390015 -7.05241394 149.15390015 -9.05241394 146.15390015 C-9.27757745 138.26720722 -7.20881236 130.25342596 -5.55241394 122.59140015 C-5.326828 121.51309937 -5.10124207 120.43479858 -4.86882019 119.32382202 C-3.19647235 111.44201697 -3.19647235 111.44201697 -2.05241394 109.15390015 C-2.89803894 109.11265015 -3.74366394 109.07140015 -4.61491394 109.02890015 C-9.13450659 107.87845838 -12.09323983 105.75076553 -15.05241394 102.15390015 C-17.64865095 97.01918063 -18.49257576 92.82335699 -18.45646667 87.05062866 C-18.46332993 86.2724176 -18.47019318 85.49420654 -18.4772644 84.69241333 C-18.49545403 82.13902148 -18.49170627 79.58624867 -18.48600769 77.0328064 C-18.49057326 75.24593406 -18.49587995 73.45906349 -18.50189209 71.67219543 C-18.5108078 67.93417205 -18.50841766 64.19636249 -18.49845886 60.45834351 C-18.48697104 55.68246067 -18.50718549 50.90731744 -18.536376 46.13153172 C-18.55477535 42.4433376 -18.55443812 38.75531951 -18.54873848 35.06709099 C-18.54858572 33.30693461 -18.5545922 31.54676596 -18.56702995 29.78665352 C-18.58200944 27.3194939 -18.57121322 24.85368526 -18.55412292 22.38656616 C-18.56379089 21.66891586 -18.57345886 20.95126556 -18.5834198 20.21186829 C-18.49763317 14.25881211 -16.7191098 8.97617432 -12.5697546 4.58474064 C-8.45058151 1.01701924 -5.32611097 0.03266286 0 0 Z M-5.05241394 15.15390015 C-5.45036886 17.80562445 -5.58958603 20.04601551 -5.55412292 22.69882202 C-5.55952591 23.4649733 -5.56492889 24.23112457 -5.57049561 25.02049255 C-5.58301076 27.55493716 -5.56647431 30.0882519 -5.54850769 32.62265015 C-5.54866261 34.38237569 -5.5501505 36.14210158 -5.55291748 37.90182495 C-5.55430272 41.59065832 -5.54172282 45.27910346 -5.51896667 48.96786499 C-5.49058152 53.69943572 -5.49331763 58.4303612 -5.50605679 63.16197968 C-5.51300738 66.79594446 -5.50523181 70.42975975 -5.49279976 74.06370544 C-5.48827921 75.80844042 -5.48795371 77.55319141 -5.49186516 79.29792786 C-5.49477135 81.73528003 -5.47829968 84.17173889 -5.45646667 86.60897827 C-5.46096832 87.33218765 -5.46546997 88.05539703 -5.47010803 88.80052185 C-5.42667218 91.7146549 -5.38743352 93.68034075 -3.67559814 96.10006714 C-1.44728909 97.54677024 0.30960533 97.55968655 2.94758606 97.65390015 C7.47411575 97.81556192 7.47411575 97.81556192 9.76789856 99.4546814 C12.21763766 102.9832791 10.30882162 108.13555233 9.59260559 112.13729858 C8.74726603 116.81674377 7.85811291 121.48673422 6.94758606 126.15390015 C11.31320738 122.48280949 15.56244707 118.7029875 19.76008606 114.84140015 C20.27208557 114.37057007 20.78408508 113.89973999 21.31159973 113.41464233 C21.82569397 112.94187866 22.33978821 112.46911499 22.86946106 111.98202515 C25.74072727 109.3419049 28.62006796 106.7110072 31.51008606 104.09140015 C32.29512512 103.37854858 33.08016418 102.66569702 33.88899231 101.9312439 C38.10014877 98.2954257 40.93680702 97.86710505 46.29304504 97.89852905 C47.03808289 97.8949086 47.78312073 97.89128815 48.55073547 97.88755798 C50.16801161 97.88066614 51.78531099 97.87815815 53.40260124 97.87950516 C55.96227656 97.88046965 58.52153109 97.86753793 61.08114624 97.8505249 C68.35828904 97.80422591 75.63538896 97.77964097 82.91267395 97.77304077 C87.36427138 97.76802958 91.81542943 97.74380053 96.26687813 97.70771408 C97.96331712 97.69790732 99.65981649 97.69558892 101.35627556 97.70088577 C103.72890649 97.70794669 106.10022562 97.69069629 108.47273254 97.6680603 C109.52410149 97.68031898 109.52410149 97.68031898 110.59671021 97.69282532 C113.75291123 97.63922539 115.70896346 97.30736907 118.38241577 95.58795166 C120.48674817 92.31543014 120.50880604 89.46431855 120.46516418 85.69491577 C120.47217346 84.9497319 120.47918274 84.20454803 120.48640442 83.43678284 C120.50398647 80.97752439 120.4923618 78.51941996 120.47883606 76.06015015 C120.48153094 74.34908833 120.48541332 72.63802801 120.49043274 70.92697144 C120.49632804 67.3424724 120.48776405 63.75837231 120.46907043 60.17391968 C120.44628057 55.58023575 120.45940352 50.9874866 120.48336029 46.39383698 C120.49781758 42.86104291 120.49321267 39.32847031 120.48284912 35.79566956 C120.48018163 34.10199371 120.48345241 32.40829772 120.49276733 30.71464539 C120.50293218 28.34685038 120.48743485 25.98056698 120.46516418 23.61288452 C120.47326111 22.91354294 120.48135803 22.21420135 120.48970032 21.4936676 C120.43727933 18.48388396 120.06466771 16.36717185 118.61091614 13.71907043 C114.2407343 11.15082746 109.79073533 11.60738973 104.81672668 11.65219116 C103.68139999 11.64678818 102.5460733 11.64138519 101.37634277 11.63581848 C97.61857643 11.62329782 93.86157121 11.63984543 90.10383606 11.6578064 C87.49596618 11.65765149 84.88809607 11.65616386 82.28022766 11.65339661 C76.81264842 11.65069529 71.34528881 11.66416306 65.87776184 11.68734741 C59.55880168 11.71395688 53.24020871 11.71570408 46.92121172 11.70395905 C40.83963241 11.69317531 34.75820707 11.69947387 28.67663574 11.71351433 C26.08981717 11.71803646 23.50298779 11.71835901 20.91616821 11.71444893 C17.30336735 11.71154453 13.69117011 11.72800785 10.07844543 11.74984741 C8.46838875 11.74309494 8.46838875 11.74309494 6.82580566 11.73620605 C5.84163162 11.74611069 4.85745758 11.75601532 3.84346008 11.76622009 C2.9895443 11.76864999 2.13562851 11.77107988 1.25583649 11.77358341 C-1.60866547 12.24555041 -2.9844054 13.13483175 -5.05241394 15.15390015 Z " fill="#000000" transform="translate(360.0524139404297,40.846099853515625)"/>
<path d="M0 0 C6.87049314 5.68397706 11.7955183 12.56413808 12.67578125 21.59765625 C12.93331072 30.89582565 10.76466339 37.69709333 4.8125 44.90234375 C-5.52143928 55.75297999 -20.527633 60.90978948 -35.26171875 61.48828125 C-54.6764066 61.77884339 -71.77196157 59.37288037 -86.36328125 45.46875 C-92.36944473 39.14254229 -95.06000048 32.92770122 -95.5625 24.15234375 C-95.11243049 14.45407169 -90.31051496 7.56253011 -83.5 0.96484375 C-61.24017738 -17.72149564 -23.05919628 -16.62652415 0 0 Z M-78.25 13.83984375 C-82.17676397 18.54708254 -82.97938216 22.00333189 -82.5625 28.15234375 C-80.27780019 35.31106983 -74.11079855 40.25896401 -67.65625 43.703125 C-51.19838116 50.89283832 -34.40730084 50.93435296 -17.5625 45.15234375 C-9.85785241 41.69372446 -4.40525197 36.97266231 -0.125 29.71484375 C0.89305655 25.07703058 0.50890233 21.25956679 -1.62109375 17.0703125 C-8.00848958 7.6068337 -18.99689154 3.2084249 -29.8125 0.96484375 C-46.65909944 -1.7695424 -66.21010704 0.68791804 -78.25 13.83984375 Z " fill="#000000" transform="translate(297.5625,410.84765625)"/>
<path d="M0 0 C5.4227239 3.70625686 8.93855798 7.54691903 10.5 14.09765625 C11.5807434 20.66092083 10.32824502 25.35514358 6.77734375 30.9140625 C3.0861069 35.74660099 -1.08658581 38.54743169 -7 40 C-15.31092372 40.93305509 -22.87390176 40.69501995 -30 36 C-34.65848417 31.9491442 -38.55862142 27.9030477 -39.2734375 21.58203125 C-39.52815544 14.63606896 -38.57701143 10.30160427 -34 5 C-25.1089083 -3.8910917 -11.20499646 -6.4477027 0 0 Z M-25.4375 14.375 C-27.21844623 16.85785011 -27.21844623 16.85785011 -27 19.5625 C-25.45066954 23.338993 -23.27415408 25.23550755 -19.8125 27.3125 C-14.50902685 28.60890455 -9.78690334 27.96790598 -5 25.375 C-2.29615241 22.16418098 -1.85322786 20.18300603 -2 16 C-4.78611497 12.3124949 -7.54460318 10.22523413 -12 9 C-17.59691493 8.2824468 -21.48904041 10.52778297 -25.4375 14.375 Z " fill="#000000" transform="translate(367,417)"/>
<path d="M0 0 C4.84562785 3.68800428 7.38398771 7.96701745 9.09765625 13.78125 C9.76925737 19.25000195 8.89269717 24.03899724 6.09765625 28.78125 C1.03965953 34.48858413 -4.48978071 38.35491541 -12.13671875 39.09375 C-21.21464756 39.40543854 -27.65839604 38.27071812 -34.71484375 32.46875 C-39.41353199 26.69607588 -41.63383794 22.76486835 -41.28125 15.26953125 C-40.2801336 8.6951895 -37.0033933 4.06882439 -31.8046875 0.03515625 C-22.14831362 -6.32972263 -9.69409692 -6.21059187 0 0 Z M-27.33984375 13.15625 C-29.12078998 15.63910011 -29.12078998 15.63910011 -28.90234375 18.34375 C-27.35301329 22.120243 -25.17649783 24.01675755 -21.71484375 26.09375 C-16.98404655 27.25016709 -12.38025849 27.04549222 -7.98828125 24.8046875 C-5.17231611 22.73608751 -3.99024704 21.2031858 -3.27734375 17.78125 C-4.05601914 14.04360811 -5.13340726 12.404453 -7.90234375 9.78125 C-15.51974478 6.37773039 -21.28896405 7.26052106 -27.33984375 13.15625 Z " fill="#000000" transform="translate(175.90234375,418.21875)"/>
<path d="M0 0 C0.94025528 -0.00686325 1.88051056 -0.0137265 2.84925842 -0.02079773 C5.95760187 -0.03910082 9.06544235 -0.03522353 12.17382812 -0.02954102 C14.33329432 -0.03410079 16.49275906 -0.03940575 18.65222168 -0.04542542 C23.17820125 -0.05436318 27.70400442 -0.05192536 32.22998047 -0.04199219 C38.03425376 -0.03049576 43.8379193 -0.0507213 49.64211273 -0.07990932 C54.10133745 -0.09824057 58.56041565 -0.09798509 63.01966858 -0.0922718 C65.15992587 -0.09211825 67.30019289 -0.09819103 69.44041443 -0.11056328 C72.43071834 -0.12541492 75.41988822 -0.11483921 78.41015625 -0.09765625 C79.2965126 -0.10732422 80.18286896 -0.11699219 81.09608459 -0.12695312 C87.04831371 -0.05520942 87.04831371 -0.05520942 90.28601074 2.20884705 C91.70507812 4.40405273 91.70507812 4.40405273 91.70507812 8.02905273 C90.70507812 11.40405273 90.70507812 11.40405273 88.89874268 12.59869671 C86.63480126 13.42985335 85.00734935 13.65769856 82.60644531 13.66474915 C81.3952301 13.67537636 81.3952301 13.67537636 80.1595459 13.68621826 C79.28254028 13.68374084 78.40553467 13.68126343 77.50195312 13.67871094 C76.57145142 13.68382187 75.64094971 13.6889328 74.68225098 13.69419861 C71.60646128 13.70809887 68.5308955 13.70713769 65.45507812 13.70483398 C63.318033 13.70872027 61.18098866 13.7130548 59.04394531 13.71781921 C54.56507869 13.72528207 50.0862909 13.72498936 45.60742188 13.71972656 C39.86378686 13.71392758 34.12047385 13.7308731 28.37689209 13.75407124 C23.96401071 13.76879092 19.55120724 13.76968275 15.13830566 13.76656151 C13.02037925 13.76707547 10.90244855 13.77232714 8.7845459 13.78237343 C5.82555087 13.79468809 2.86718778 13.78797626 -0.09179688 13.77636719 C-0.96880249 13.78401093 -1.84580811 13.79165466 -2.74938965 13.79953003 C-6.27589103 13.76889635 -8.66771759 13.72567927 -11.83886719 12.09953308 C-13.29492188 10.40405273 -13.29492188 10.40405273 -13.79492188 6.90405273 C-13.29492188 3.40405273 -13.29492188 3.40405273 -11.84460449 1.71055603 C-7.96471367 -0.27756991 -4.30075816 -0.02184279 0 0 Z " fill="#000000" transform="translate(56.294921875,98.595947265625)"/>
<path d="M0 0 C0.94025528 -0.00686325 1.88051056 -0.0137265 2.84925842 -0.02079773 C5.95760187 -0.03910082 9.06544235 -0.03522353 12.17382812 -0.02954102 C14.33329432 -0.03410079 16.49275906 -0.03940575 18.65222168 -0.04542542 C23.17820125 -0.05436318 27.70400442 -0.05192536 32.22998047 -0.04199219 C38.03425376 -0.03049576 43.8379193 -0.0507213 49.64211273 -0.07990932 C54.10133745 -0.09824057 58.56041565 -0.09798509 63.01966858 -0.0922718 C65.15992587 -0.09211825 67.30019289 -0.09819103 69.44041443 -0.11056328 C72.43071834 -0.12541492 75.41988822 -0.11483921 78.41015625 -0.09765625 C79.2965126 -0.10732422 80.18286896 -0.11699219 81.09608459 -0.12695312 C87.04831371 -0.05520942 87.04831371 -0.05520942 90.28601074 2.20884705 C91.70507812 4.40405273 91.70507812 4.40405273 91.70507812 8.02905273 C90.70507812 11.40405273 90.70507812 11.40405273 88.89874268 12.59869671 C86.63480126 13.42985335 85.00734935 13.65769856 82.60644531 13.66474915 C81.3952301 13.67537636 81.3952301 13.67537636 80.1595459 13.68621826 C79.28254028 13.68374084 78.40553467 13.68126343 77.50195312 13.67871094 C76.57145142 13.68382187 75.64094971 13.6889328 74.68225098 13.69419861 C71.60646128 13.70809887 68.5308955 13.70713769 65.45507812 13.70483398 C63.318033 13.70872027 61.18098866 13.7130548 59.04394531 13.71781921 C54.56507869 13.72528207 50.0862909 13.72498936 45.60742188 13.71972656 C39.86378686 13.71392758 34.12047385 13.7308731 28.37689209 13.75407124 C23.96401071 13.76879092 19.55120724 13.76968275 15.13830566 13.76656151 C13.02037925 13.76707547 10.90244855 13.77232714 8.7845459 13.78237343 C5.82555087 13.79468809 2.86718778 13.78797626 -0.09179688 13.77636719 C-0.96880249 13.78401093 -1.84580811 13.79165466 -2.74938965 13.79953003 C-6.27589103 13.76889635 -8.66771759 13.72567927 -11.83886719 12.09953308 C-13.29492188 10.40405273 -13.29492188 10.40405273 -13.79492188 6.90405273 C-13.29492188 3.40405273 -13.29492188 3.40405273 -11.84460449 1.71055603 C-7.96471367 -0.27756991 -4.30075816 -0.02184279 0 0 Z " fill="#000000" transform="translate(378.294921875,98.595947265625)"/>
<path d="M0 0 C0.9095343 -0.00365067 1.8190686 -0.00730133 2.75616455 -0.01106262 C5.75690494 -0.01915581 8.75710324 -0.00556806 11.7578125 0.0090332 C13.8461914 0.00955196 15.9345708 0.00903366 18.02294922 0.00752258 C22.3975352 0.00761225 26.77193668 0.01803088 31.14648438 0.03613281 C36.7520624 0.05881963 42.35737088 0.05936344 47.96298218 0.05261517 C52.27468254 0.04927264 56.58632153 0.05591066 60.89801025 0.0657444 C62.96486083 0.06959178 65.03171823 0.07074653 67.09857178 0.06915855 C69.98772168 0.06878743 72.87652691 0.08142159 75.765625 0.09765625 C77.04533173 0.09394012 77.04533173 0.09394012 78.35089111 0.09014893 C82.64535554 0.12863401 85.96805389 0.37894299 89.8828125 2.37231445 C90.6328125 5.62231445 90.6328125 5.62231445 90.8828125 9.37231445 C89.47937012 11.57533264 89.47937012 11.57533264 86.8828125 13.37231445 C83.78564155 13.96130756 80.73259423 13.90832442 77.58789062 13.87402344 C76.64763535 13.87942642 75.70738007 13.88482941 74.7386322 13.89039612 C71.63012225 13.90290496 68.52253457 13.88637774 65.4140625 13.8684082 C63.25459749 13.86856314 61.09513219 13.87005124 58.93566895 13.87281799 C54.40962432 13.87420296 49.88389621 13.86162738 45.35791016 13.83886719 C39.5537037 13.81048252 33.75002327 13.8132187 27.94577789 13.8259573 C23.48654684 13.83290925 19.02743756 13.82513067 14.56822205 13.81270027 C12.42797818 13.80818109 10.28772126 13.80785304 8.1474762 13.81176567 C5.15728924 13.8146731 2.1678295 13.79819293 -0.82226562 13.77636719 C-1.70862198 13.78086884 -2.59497833 13.78537048 -3.50819397 13.79000854 C-7.05107204 13.74699924 -9.47842743 13.70012885 -12.66296387 12.06581116 C-14.1171875 10.37231445 -14.1171875 10.37231445 -14.6796875 6.87231445 C-14.1171875 3.37231445 -14.1171875 3.37231445 -12.15185547 1.67683411 C-8.01890919 -0.09980495 -4.45322225 -0.0398989 0 0 Z " fill="#000000" transform="translate(57.1171875,78.627685546875)"/>
<path d="M0 0 C1.36430145 -0.00788544 1.36430145 -0.00788544 2.75616455 -0.01593018 C5.75688955 -0.02911316 8.75708228 -0.02039801 11.7578125 -0.01025391 C13.84619244 -0.01227513 15.93457169 -0.01518697 18.02294922 -0.01895142 C22.39752937 -0.02337247 26.77192562 -0.01695065 31.14648438 -0.00292969 C36.75213255 0.01416194 42.35734981 0.00431961 47.96298218 -0.01364708 C52.27469119 -0.02449074 56.58629815 -0.02103587 60.89801025 -0.0132637 C62.96486461 -0.01126331 65.03172826 -0.0137153 67.09857178 -0.02070236 C69.987839 -0.02832629 72.87640962 -0.01669919 75.765625 0 C77.04533173 -0.00910904 77.04533173 -0.00910904 78.35089111 -0.0184021 C83.45778433 0.03624352 87.09218844 0.59755954 90.8828125 4.38818359 C90.6328125 7.82568359 90.6328125 7.82568359 89.8828125 11.38818359 C86.84644701 13.41242725 86.26982931 13.63900279 82.86647034 13.64888 C81.64469589 13.65950722 81.64469589 13.65950722 80.39823914 13.67034912 C79.50828751 13.6678717 78.61833588 13.66539429 77.70141602 13.6628418 C76.76130676 13.66795273 75.82119751 13.67306366 74.8526001 13.67832947 C71.73890857 13.69225175 68.62543774 13.69126672 65.51171875 13.68896484 C63.35082415 13.6928503 61.18993031 13.69718466 59.02903748 13.70195007 C54.49711635 13.70941795 49.96527312 13.70911687 45.43334961 13.70385742 C39.62130601 13.69806185 33.80958098 13.71499332 27.99759007 13.7382021 C23.53409455 13.75292273 19.07067605 13.75381341 14.60716057 13.75069237 C12.46411445 13.75120641 10.3210641 13.75645969 8.17804146 13.76650429 C5.18301727 13.77881897 2.18861745 13.77210675 -0.80639648 13.76049805 C-1.69432388 13.76814178 -2.58225128 13.77578552 -3.49708557 13.78366089 C-7.04606668 13.75320382 -9.47247081 13.71842394 -12.66395569 12.08366394 C-14.1171875 10.38818359 -14.1171875 10.38818359 -14.6796875 6.88818359 C-14.1171875 3.38818359 -14.1171875 3.38818359 -12.15185547 1.69369507 C-8.0209167 -0.08343113 -4.45199881 -0.03168963 0 0 Z " fill="#000000" transform="translate(379.1171875,78.61181640625)"/>
<path d="M0 0 C0.82293045 -0.00990463 1.6458609 -0.01980927 2.49372864 -0.03001404 C3.84268219 -0.02326157 3.84268219 -0.02326157 5.21888733 -0.01637268 C6.16875015 -0.02323593 7.11861298 -0.03009918 8.09725952 -0.03717041 C11.24350345 -0.05550217 14.38925174 -0.05159173 17.53553772 -0.0459137 C19.71885339 -0.05047251 21.90216761 -0.05577718 24.08547974 -0.0617981 C28.66451339 -0.0707418 33.24337275 -0.06829179 37.82240295 -0.05836487 C43.69508372 -0.04687513 49.56716323 -0.06708074 55.43976498 -0.09628201 C59.9496036 -0.11461443 64.45929737 -0.11435741 68.96916389 -0.10864449 C71.13454087 -0.1084909 73.29992744 -0.11456577 75.46526909 -0.12693596 C78.49160009 -0.14178762 81.51681052 -0.13121133 84.54310608 -0.11402893 C85.44038422 -0.1236969 86.33766235 -0.13336487 87.26213074 -0.14332581 C93.31781046 -0.07120668 93.31781046 -0.07120668 96.50601196 2.25888062 C98.29886122 4.90989416 98.50908812 6.24876979 97.94569397 9.38768005 C96.40248941 11.36961315 95.51339243 12.27718591 93.02040005 12.76241016 C92.28832868 12.76224242 91.55625731 12.76207468 90.80200195 12.76190186 C89.95935287 12.76891617 89.1167038 12.77593048 88.2485199 12.78315735 C87.32737396 12.77551361 86.40622803 12.76786987 85.45716858 12.75999451 C84.48458603 12.76364517 83.51200348 12.76729584 82.50994873 12.77105713 C79.28913515 12.7791756 76.06882257 12.7655425 72.84803772 12.7509613 C70.61509196 12.7504429 68.38214574 12.75095985 66.14920044 12.75247192 C61.46760757 12.75238214 56.78618671 12.74194021 52.10462952 12.72386169 C46.09290066 12.70116133 40.08142298 12.70063221 34.06966305 12.70737934 C29.45869703 12.71071473 24.84778867 12.70409756 20.23683357 12.69425011 C18.01957564 12.69039138 15.80231131 12.68925266 13.58505058 12.69083595 C10.49151681 12.69120528 7.39830971 12.67862389 4.30482483 12.66233826 C3.38165466 12.66481567 2.4584845 12.66729309 1.50733948 12.66984558 C0.66751022 12.66276077 -0.17231903 12.65567596 -1.03759766 12.64837646 C-1.769292 12.6463236 -2.50098635 12.64427073 -3.25485325 12.64215565 C-5.05430603 12.38768005 -5.05430603 12.38768005 -7.05430603 10.38768005 C-7.62150153 4.1485295 -7.62150153 4.1485295 -5.78816891 1.68925381 C-3.67875882 0.1057648 -2.61668687 0.00889611 0 0 Z " fill="#000000" transform="translate(372.05430603027344,118.61231994628906)"/>
<path d="M0 0 C0.82293045 -0.00990463 1.6458609 -0.01980927 2.49372864 -0.03001404 C3.84268219 -0.02326157 3.84268219 -0.02326157 5.21888733 -0.01637268 C6.16875015 -0.02323593 7.11861298 -0.03009918 8.09725952 -0.03717041 C11.24350345 -0.05550217 14.38925174 -0.05159173 17.53553772 -0.0459137 C19.71885339 -0.05047251 21.90216761 -0.05577718 24.08547974 -0.0617981 C28.66451339 -0.0707418 33.24337275 -0.06829179 37.82240295 -0.05836487 C43.69508372 -0.04687513 49.56716323 -0.06708074 55.43976498 -0.09628201 C59.9496036 -0.11461443 64.45929737 -0.11435741 68.96916389 -0.10864449 C71.13454087 -0.1084909 73.29992744 -0.11456577 75.46526909 -0.12693596 C78.49160009 -0.14178762 81.51681052 -0.13121133 84.54310608 -0.11402893 C85.44038422 -0.1236969 86.33766235 -0.13336487 87.26213074 -0.14332581 C93.31781046 -0.07120668 93.31781046 -0.07120668 96.50601196 2.25888062 C98.29886122 4.90989416 98.50908812 6.24876979 97.94569397 9.38768005 C96.40266022 11.36888214 95.51185445 12.27666384 93.02040005 12.76520348 C92.28832868 12.76633455 91.55625731 12.76746563 90.80200195 12.76863098 C89.95935287 12.77709045 89.1167038 12.78554993 88.2485199 12.79426575 C87.32737396 12.78819305 86.40622803 12.78212036 85.45716858 12.77586365 C83.99829475 12.78374908 83.99829475 12.78374908 82.50994873 12.79179382 C79.28914928 12.805018 76.06884236 12.79624771 72.84803772 12.78611755 C70.61509099 12.78813742 68.3821449 12.79104813 66.14920044 12.79481506 C61.46761296 12.79924157 56.78619707 12.79279615 52.10462952 12.77879333 C46.0928353 12.76169153 40.08144256 12.77154709 34.06966305 12.78951073 C29.4586889 12.80033125 24.84781055 12.79691035 20.23683357 12.78912735 C18.0195721 12.78712106 15.80230202 12.78959956 13.58505058 12.79656601 C10.49140622 12.80415304 7.39841995 12.79261519 4.30482483 12.77586365 C3.38165466 12.78193634 2.4584845 12.78800903 1.50733948 12.79426575 C0.66751022 12.78580627 -0.17231903 12.7773468 -1.03759766 12.76863098 C-1.769292 12.7674999 -2.50098635 12.76636883 -3.25485325 12.76520348 C-5.05430603 12.38768005 -5.05430603 12.38768005 -7.05430603 9.38768005 C-7.60407592 4.10988916 -7.60407592 4.10988916 -5.78816891 1.72441006 C-3.67790539 0.09749216 -2.64097247 0.00897868 0 0 Z " fill="#000000" transform="translate(50.05430603027344,118.61231994628906)"/>
<path d="M0 0 C0.83982925 -0.00852997 1.67965851 -0.01705994 2.54493713 -0.02584839 C3.92969238 -0.02448883 3.92969238 -0.02448883 5.34242249 -0.02310181 C6.31325272 -0.02981903 7.28408295 -0.03653625 8.28433228 -0.04345703 C11.50565149 -0.06251377 14.72676324 -0.06636501 17.94813538 -0.06851196 C20.18011563 -0.07493426 22.41209503 -0.08166218 24.64407349 -0.08868408 C29.32739718 -0.10067587 34.01064701 -0.10436292 38.69398499 -0.10317993 C44.70464427 -0.10297657 50.71483165 -0.13028839 56.72537899 -0.16472435 C61.33638702 -0.18692581 65.94728024 -0.19101956 70.55833626 -0.18996048 C72.7747873 -0.19232627 74.99124104 -0.20120435 77.20763969 -0.21662521 C80.30368797 -0.23614972 83.39870247 -0.23050048 86.49476624 -0.21841431 C87.41591217 -0.22965332 88.33705811 -0.24089233 89.28611755 -0.25247192 C95.45843989 -0.19102348 95.45843989 -0.19102348 98.08413696 2.10247803 C99.36488354 5.18620681 98.94321918 7.11337787 97.98329163 10.26742554 C94.93547334 12.29930439 94.34470376 12.51830965 90.92225647 12.52812195 C90.09788086 12.53520676 89.27350525 12.54229156 88.42414856 12.54959106 C87.52327515 12.54711365 86.62240173 12.54463623 85.69422913 12.54208374 C84.74276001 12.54719467 83.79129089 12.5523056 82.81098938 12.55757141 C79.66002649 12.57149296 76.50928165 12.57050888 73.35829163 12.56820679 C71.17258116 12.57209196 68.98687145 12.57642625 66.80116272 12.58119202 C62.21796726 12.58865949 57.63484882 12.58835886 53.051651 12.58309937 C47.17000826 12.57730033 41.28867996 12.59424381 35.40708923 12.61744404 C30.89302213 12.63215369 26.37903128 12.63305692 21.86494446 12.62993431 C19.69595211 12.63044879 17.52695564 12.63571022 15.35798645 12.64574623 C12.32923246 12.65804131 9.30109772 12.65136089 6.27235413 12.63973999 C5.37148071 12.64738373 4.4706073 12.65502747 3.54243469 12.66290283 C2.30587128 12.65238136 2.30587128 12.65238136 1.04432678 12.64164734 C0.32830292 12.64181508 -0.38772095 12.64198282 -1.1254425 12.64215565 C-3.62348227 12.14720106 -4.5073779 11.29375288 -6.01670837 9.26742554 C-6.32920837 5.70492554 -6.32920837 5.70492554 -6.01670837 2.26742554 C-3.6523346 -0.09694823 -3.20598001 0.0146857 0 0 Z " fill="#000000" transform="translate(371.01670837402344,59.732574462890625)"/>
<path d="M0 0 C0.83278976 -0.00845947 1.66557953 -0.01691895 2.52360535 -0.02563477 C3.4338295 -0.01956207 4.34405365 -0.01348938 5.28186035 -0.00723267 C6.24308304 -0.01248962 7.20430573 -0.01774658 8.19465637 -0.02316284 C11.37818559 -0.03638771 14.5612165 -0.02761582 17.74475098 -0.01748657 C19.95288184 -0.01950659 22.16101205 -0.02241742 24.36914062 -0.02618408 C28.99945419 -0.03061081 33.62959427 -0.02416505 38.2598877 -0.01016235 C44.20208291 0.00692958 50.14387165 -0.00290971 56.08605194 -0.02087975 C60.64645463 -0.03170808 65.20676057 -0.02827559 69.76716614 -0.02049637 C71.95848132 -0.01849174 74.14980522 -0.02096282 76.34111023 -0.02793503 C79.40102484 -0.03553376 82.46027651 -0.02396717 85.5201416 -0.00723267 C86.43036575 -0.01330536 87.3405899 -0.01937805 88.27839661 -0.02563477 C89.52758125 -0.01294556 89.52758125 -0.01294556 90.80200195 0 C91.88709927 0.00169662 91.88709927 0.00169662 92.99411774 0.00342751 C95.50270578 0.50007603 96.40991943 1.32500428 97.90100098 3.38095093 C97.56766764 9.71428426 97.56766764 9.71428426 94.90100098 12.38095093 C91.78291606 12.58525496 88.75328503 12.66406659 85.63366699 12.65560913 C84.67259033 12.66072006 83.71151367 12.66583099 82.72131348 12.6710968 C79.53244871 12.68503966 76.34379892 12.6840325 73.15490723 12.68173218 C70.94534728 12.68561655 68.73578808 12.68995068 66.52622986 12.69471741 C61.88997988 12.70218974 57.25380603 12.70188102 52.61755371 12.69662476 C46.66750232 12.69082905 40.7177621 12.70775883 34.76776218 12.73096943 C30.20308094 12.74568013 25.63847509 12.7465821 21.07377434 12.7434597 C18.87966228 12.74397426 16.68554615 12.74923714 14.49145699 12.75927162 C11.42667374 12.77156695 8.36250247 12.76488578 5.29772949 12.75326538 C4.3859343 12.76090912 3.4741391 12.76855286 2.53471375 12.77642822 C1.70047882 12.76941391 0.8662439 12.7623996 0.00672913 12.75517273 C-0.7179679 12.75534047 -1.44266493 12.75550821 -2.18932247 12.75568104 C-4.68506765 12.26594844 -5.57295156 11.38557159 -7.09899902 9.38095093 C-7.74327113 4.22677407 -7.74327113 4.22677407 -5.83174896 1.71726036 C-3.71003937 0.08098239 -2.6565105 0.00415361 0 0 Z " fill="#000000" transform="translate(50.0989990234375,59.619049072265625)"/>
</svg>
