<?xml version="1.0" encoding="UTF-8"?>
<svg version="1.1" xmlns="http://www.w3.org/2000/svg" width="512" height="512">
<path d="M0 0 C12.69199273 11.01355685 22.89601868 26.98648001 25.1875 43.8125 C25.26774005 46.81497087 25.25090973 49.80986257 25.1875 52.8125 C26.16098389 52.79155273 27.13446777 52.77060547 28.13745117 52.74902344 C31.76213776 52.67641814 35.38676055 52.63062665 39.01196289 52.59277344 C40.57847923 52.57270442 42.14492109 52.54544249 43.71118164 52.51074219 C45.96779794 52.46201246 48.22342083 52.4394853 50.48046875 52.421875 C51.17649704 52.40122986 51.87252533 52.38058472 52.58964539 52.35931396 C56.18331935 52.35766968 58.06431281 52.73234642 61.10668945 54.71191406 C65.28084766 58.9257422 64.47931746 63.47993009 64.5625 69.125 C64.61857422 70.55102539 64.61857422 70.55102539 64.67578125 72.00585938 C64.73370772 76.61101407 64.71358377 79.05206982 62.0390625 82.91796875 C58.94383903 84.97438434 56.81761606 85.32159574 53.1875 85.8125 C53.19026538 86.60487596 53.19303076 87.39725191 53.19587994 88.21363926 C53.26215871 107.50183261 53.31178981 126.79000321 53.34293652 146.07828617 C53.35839952 155.40599217 53.37947823 164.73362212 53.41381836 174.0612793 C53.44373803 182.19211088 53.46307912 190.32288738 53.46976548 198.45377249 C53.47367339 202.75825822 53.48284572 207.06258637 53.50469017 211.36702156 C53.52509591 215.42091374 53.53132556 219.47458383 53.52682304 223.52852249 C53.52764642 225.01398489 53.53358778 226.49945493 53.54511642 227.98487282 C53.6610658 243.69906681 53.6610658 243.69906681 47.8125 250.625 C43.05522161 254.58939866 39.10174221 255.063881 32.98965454 255.07992554 C31.9187223 255.08672221 31.9187223 255.08672221 30.82615507 255.09365618 C28.43953844 255.10629222 26.05315024 255.10468035 23.66650391 255.10302734 C21.95300504 255.10901307 20.23950886 255.11581872 18.52601624 255.12338257 C13.87514976 255.14104464 9.22435688 255.14573802 4.5734601 255.14701414 C1.6669097 255.14843611 -1.239622 255.15270655 -4.14616776 255.15800858 C-14.28853798 255.17650908 -24.43085565 255.1846791 -34.57324219 255.18310547 C-44.02373802 255.18190385 -53.47400555 255.20301008 -62.9244436 255.2345928 C-71.04179501 255.26075263 -79.15907183 255.2714729 -87.27646506 255.27019465 C-92.12303483 255.26968496 -96.96940167 255.27537223 -101.81592941 255.29655075 C-106.37473398 255.31592836 -110.9331419 255.31606092 -115.49196053 255.30151749 C-117.16286486 255.29942774 -118.83379399 255.30414021 -120.50465584 255.3162384 C-122.79046377 255.33171427 -125.07490793 255.32236891 -127.36068726 255.30697632 C-128.63825079 255.30806585 -129.91581432 255.30915539 -131.2320919 255.31027794 C-136.73049155 254.54584496 -140.42197129 252.34940015 -144.1875 248.1875 C-146.81903593 244.34140902 -146.93645204 242.2399686 -146.93275452 237.57369995 C-146.93360894 236.92678983 -146.93446337 236.27987971 -146.93534368 235.61336625 C-146.93699662 233.43606404 -146.93148016 231.25883813 -146.92602539 229.08154297 C-146.92574345 227.52461753 -146.92590138 225.96769196 -146.9264679 224.4107666 C-146.92675561 220.17547134 -146.92086302 215.94020422 -146.91389394 211.70491552 C-146.90765613 207.28196701 -146.90705626 202.85901791 -146.90586853 198.43606567 C-146.90275648 190.05670817 -146.89454478 181.67736367 -146.88451904 173.2980119 C-146.873354 163.76005929 -146.86784647 154.22210607 -146.86282361 144.68414855 C-146.85236207 125.06025844 -146.83476505 105.43638004 -146.8125 85.8125 C-148.08150146 85.52439453 -149.35050293 85.23628906 -150.65795898 84.93945312 C-153.6744729 84.2546043 -154.81242032 83.81256546 -157.28515625 81.78125 C-159.44801735 77.57722331 -159.36059454 73.97174106 -159.25 69.3125 C-159.25708984 68.47074219 -159.26417969 67.62898438 -159.27148438 66.76171875 C-159.22294118 62.01942156 -159.0045903 58.576416 -155.8125 54.8125 C-152.15753336 52.33681721 -148.74186566 52.58290186 -144.421875 52.6171875 C-143.36495453 52.62143234 -143.36495453 52.62143234 -142.28668213 52.62576294 C-140.0451124 52.63692199 -137.80394814 52.66201807 -135.5625 52.6875 C-134.03906829 52.69753536 -132.51563029 52.70666024 -130.9921875 52.71484375 C-127.26549414 52.73684709 -123.53903667 52.77134728 -119.8125 52.8125 C-119.76496582 52.03326172 -119.71743164 51.25402344 -119.66845703 50.45117188 C-118.36841637 31.98319813 -110.90947652 16.93237333 -97.8125 3.8125 C-97.19890625 3.18730469 -96.5853125 2.56210937 -95.953125 1.91796875 C-69.17663282 -23.42815526 -28.06558851 -21.443371 0 0 Z M-95.74609375 12.35546875 C-99.27209469 16.54801051 -102.10140421 21.06277343 -104.8125 25.8125 C-105.21339844 26.50214844 -105.61429687 27.19179688 -106.02734375 27.90234375 C-110.40605315 35.98230185 -111.8125 43.6468636 -111.8125 52.8125 C-68.9125 52.8125 -26.0125 52.8125 18.1875 52.8125 C16.35439348 34.48143476 9.37529193 18.65531148 -4.671875 6.296875 C-15.83268443 -2.43515725 -28.62197724 -8.06126804 -42.8125 -9.1875 C-43.4621875 -9.24035156 -44.111875 -9.29320312 -44.78125 -9.34765625 C-63.81411146 -10.16436486 -82.776127 -1.26415644 -95.74609375 12.35546875 Z M-150.8125 60.8125 C-151.83482879 63.87948637 -151.9784049 66.09914878 -152 69.3125 C-152.01417969 70.2715625 -152.02835937 71.230625 -152.04296875 72.21875 C-152.00005111 75.04996139 -152.00005111 75.04996139 -149.8125 77.8125 C-147.06864543 78.11121703 -144.54954596 78.21234614 -141.80285645 78.1867218 C-140.54671752 78.19268341 -140.54671752 78.19268341 -139.26520205 78.19876546 C-136.44290768 78.20843431 -133.62110888 78.19654282 -130.79882812 78.18481445 C-128.78209749 78.18724091 -126.76536806 78.1909588 -124.74864197 78.19587708 C-119.25906796 78.20530975 -113.7696715 78.19584071 -108.28011131 78.18254495 C-102.54615617 78.17125896 -96.81221013 78.17533574 -91.07824707 78.17729187 C-81.44748012 78.17817575 -71.81678344 78.1670748 -62.18603516 78.14868164 C-51.03770552 78.1275126 -39.88947887 78.12400358 -28.74113321 78.1302436 C-18.03463787 78.13593041 -7.32817894 78.13029967 3.37831116 78.11907005 C7.942883 78.114415 12.50743264 78.11355412 17.07200623 78.1156559 C22.44323913 78.11753404 27.81436662 78.10947156 33.18557549 78.0935955 C35.16172792 78.08933847 37.13789102 78.08851156 39.1140461 78.09128571 C41.80210011 78.09448779 44.48983524 78.08547589 47.17785645 78.07319641 C47.96831092 78.07697573 48.7587654 78.08075506 49.57317305 78.08464891 C53.84233717 78.20404843 53.84233717 78.20404843 57.1875 75.8125 C57.54633583 72.52599802 57.54633583 72.52599802 57.5 68.8125 C57.52513672 66.9253125 57.52513672 66.9253125 57.55078125 65 C57.43089844 63.948125 57.31101562 62.89625 57.1875 61.8125 C53.42617346 59.30494897 50.48776615 59.5365398 46.13352966 59.56526184 C45.30341639 59.56284743 44.47330312 59.56043301 43.6180349 59.55794543 C40.82657626 59.55229366 38.03534497 59.56098267 35.24389648 59.56958008 C33.24672381 59.56850757 31.24955145 59.56656936 29.25238037 59.56382751 C23.82074817 59.55897134 18.38919786 59.56664427 12.95757556 59.57678056 C7.28235129 59.58554755 1.60712969 59.58380388 -4.06809998 59.5834198 C-13.59871801 59.584357 -23.12930424 59.59304882 -32.65991211 59.60668945 C-43.69179413 59.62242005 -54.72364133 59.62768743 -65.75553375 59.6269539 C-76.35256534 59.62634435 -86.94958553 59.63144284 -97.54661369 59.63974571 C-102.06373114 59.64328378 -106.58084456 59.64510971 -111.09796333 59.64563942 C-116.41254586 59.6466412 -121.72709894 59.65272431 -127.04167175 59.66280556 C-128.99686439 59.6657356 -130.95206042 59.66695491 -132.90725517 59.66637802 C-135.56670624 59.66589012 -138.22607383 59.67151539 -140.88551331 59.67878723 C-141.66750377 59.67723863 -142.44949423 59.67569003 -143.25518137 59.6740945 C-147.16212362 59.61417855 -147.16212362 59.61417855 -150.8125 60.8125 Z M-139.8125 85.8125 C-139.874375 111.119375 -139.93625 136.42625 -140 162.5 C-140.02731201 170.49436279 -140.05462402 178.48872559 -140.08276367 186.7253418 C-140.09279621 193.8837032 -140.09279621 193.8837032 -140.09883118 201.04206848 C-140.10162916 204.2335789 -140.1128835 207.42494002 -140.12922668 210.6164093 C-140.14979478 214.68679302 -140.15597522 218.75695945 -140.15171683 222.82739031 C-140.15260736 224.32156039 -140.15856187 225.81573801 -140.17014539 227.30986345 C-140.18506602 229.32811804 -140.17967963 231.34649233 -140.17326355 233.36479187 C-140.17741162 235.06135186 -140.17741162 235.06135186 -140.18164349 236.79218578 C-139.76254298 240.22124594 -138.87343995 242.06200305 -136.8125 244.8125 C-133.12023861 247.27400759 -131.28831887 247.07056012 -126.87966919 247.08665466 C-126.17009563 247.09189134 -125.46052208 247.09712802 -124.72944629 247.10252339 C-122.34577867 247.11755543 -119.9623251 247.11822923 -117.57861328 247.11889648 C-115.87201575 247.12651581 -114.16542166 247.13494291 -112.45883179 247.14411926 C-107.81831925 247.16609318 -103.17787262 247.17486701 -98.53731394 247.17994571 C-95.6391652 247.18358577 -92.74103382 247.18982399 -89.84289169 247.1969471 C-79.7352599 247.22145135 -69.62767951 247.23449566 -59.52001953 247.23803711 C-50.09333694 247.24167347 -40.66697973 247.27157349 -31.24039662 247.31344169 C-23.15114158 247.34811261 -15.06199453 247.36358499 -6.97266567 247.36428314 C-2.13948948 247.36507703 2.6933554 247.37386693 7.52645493 247.40228081 C12.07215569 247.42840686 16.61724917 247.43069744 21.16299057 247.41462517 C22.83151572 247.41280632 24.50007535 247.41954067 26.1685257 247.43544388 C28.44664009 247.45583468 30.72261562 247.44539705 33.0007019 247.42723083 C34.91264752 247.43024783 34.91264752 247.43024783 36.86321831 247.43332577 C41.1687707 246.62924293 42.6262793 245.33141926 45.1875 241.8125 C45.91919671 238.71250094 45.91919671 238.71250094 45.78877258 235.28886414 C45.79566007 233.97211795 45.80254755 232.65537176 45.80964375 231.29872417 C45.79191154 229.84066421 45.77372207 228.38260976 45.75512695 226.92456055 C45.75359475 225.36203225 45.75426364 223.79950049 45.75695324 222.23697376 C45.75808116 218.05594417 45.72912266 213.87563139 45.69390106 209.69477081 C45.66540629 205.77032739 45.66408447 201.84605748 45.66052246 197.92150879 C45.63429552 186.44757774 45.56448958 174.97377979 45.5 163.5 C45.396875 137.863125 45.29375 112.22625 45.1875 85.8125 C-15.8625 85.8125 -76.9125 85.8125 -139.8125 85.8125 Z " fill="#000000" transform="translate(438.8125,257.1875)"/>
<path d="M0 0 C1.41570092 1.18499411 2.81164241 2.39396952 4.1875 3.625 C5.30898438 4.60726563 5.30898438 4.60726563 6.453125 5.609375 C18.70390467 17.0267683 26.40142226 32.99048497 28.1875 49.625 C28.1977784 51.29163497 28.19911231 52.95837379 28.1875 54.625 C29.13069092 54.60928955 30.07388184 54.5935791 31.0456543 54.57739258 C34.55873148 54.52613993 38.07140898 54.48859009 41.5847168 54.46020508 C43.10268438 54.44515647 44.62060876 54.42471262 46.13842773 54.39868164 C48.32546677 54.36212347 50.51192896 54.34523477 52.69921875 54.33203125 C54.01365967 54.3163208 55.32810059 54.30061035 56.68237305 54.28442383 C60.39264178 54.64493263 62.23363585 55.41113787 65.1875 57.625 C68.10153375 61.2961543 67.51794616 66.09390636 67.5 70.5625 C67.51611328 71.36107422 67.53222656 72.15964844 67.54882812 72.98242188 C67.55270363 77.66015311 67.3021291 80.88173017 64.1875 84.625 C58.29094828 87.625 58.29094828 87.625 55.1875 87.625 C55.19118717 88.43375895 55.19487434 89.24251789 55.19867325 90.07578468 C55.28701554 109.75583321 55.35320537 129.43584755 55.39474869 149.11605263 C55.41537279 158.63326768 55.4434905 168.15035037 55.48925781 177.66748047 C55.52913021 185.96274192 55.55493392 194.2579075 55.56385398 202.55326211 C55.56906805 206.94551675 55.58131979 211.33749713 55.61042023 215.72966385 C55.63759575 219.86485321 55.64594073 223.99965567 55.63993073 228.13492584 C55.64103001 229.65145598 55.64897142 231.16799922 55.6643219 232.68445206 C55.68428465 234.75850108 55.6794181 236.83109783 55.66851807 238.90518188 C55.67220524 240.06479746 55.67589241 241.22441303 55.67969131 242.41916847 C54.90648192 247.45537896 52.36135769 250.53918164 48.6875 253.9375 C44.29074595 256.90530898 40.39741994 256.75451613 35.15460205 256.77217102 C34.44629077 256.77584771 33.73797948 256.7795244 33.00820422 256.7833125 C30.63469388 256.79432578 28.26122735 256.79818915 25.88769531 256.80200195 C24.18582013 256.80826835 22.4839463 256.8149153 20.78207397 256.82191467 C15.19326731 256.84293519 9.60446042 256.85331465 4.015625 256.86328125 C2.09035986 256.86732945 0.16509486 256.87144639 -1.76016998 256.87563133 C-10.80504554 256.89467797 -19.84991296 256.90891055 -28.89480472 256.9172433 C-39.33043383 256.92701649 -49.76585089 256.95334037 -60.20140529 256.99374419 C-68.27118507 257.02391474 -76.34090409 257.03871304 -84.41073918 257.04202431 C-89.22886522 257.04437357 -94.04676456 257.05331796 -98.86483002 257.07848549 C-103.39898406 257.10178788 -107.93276248 257.10599076 -112.46696091 257.09572411 C-114.12777583 257.09522918 -115.78860939 257.10153702 -117.44936752 257.11528015 C-133.18332644 257.23816035 -133.18332644 257.23816035 -139.8125 252.625 C-144.24106554 247.1744578 -144.938306 243.12122125 -144.93275452 236.25958252 C-144.93481651 234.29504372 -144.93481651 234.29504372 -144.93692017 232.29081726 C-144.93338122 230.84133888 -144.92974641 229.39186074 -144.92602539 227.94238281 C-144.92574329 226.41471865 -144.9259017 224.88705435 -144.9264679 223.35939026 C-144.92675498 219.21305328 -144.92087255 215.06674519 -144.91389394 210.92041492 C-144.90764567 206.58689838 -144.90705543 202.25338119 -144.90586853 197.91986084 C-144.90275957 189.71410804 -144.89455203 181.50836854 -144.88451904 173.3026216 C-144.87334442 163.96050769 -144.86784405 154.61839314 -144.86282361 145.2762742 C-144.85236907 126.05917525 -144.83477802 106.8420887 -144.8125 87.625 C-145.91787109 87.32537354 -147.02324219 87.02574707 -148.16210938 86.71704102 C-153.63364726 85.0801905 -153.63364726 85.0801905 -155.8125 81.625 C-156.39244968 78.13373375 -156.37027562 74.71903477 -156.3125 71.1875 C-156.32796875 70.24583984 -156.3434375 69.30417969 -156.359375 68.33398438 C-156.33453331 63.9338996 -156.25045344 61.33667434 -153.90625 57.52734375 C-150.22042019 54.1784648 -147.15534383 54.49283731 -142.3984375 54.52734375 C-141.30397812 54.52946617 -141.30397812 54.52946617 -140.18740845 54.53163147 C-137.85406415 54.53723469 -135.52081536 54.54978765 -133.1875 54.5625 C-131.60677222 54.56751459 -130.02604293 54.57207757 -128.4453125 54.57617188 C-124.56767146 54.58720516 -120.69010193 54.60447189 -116.8125 54.625 C-116.82410156 54.03984619 -116.83570313 53.45469238 -116.84765625 52.85180664 C-117.0475767 35.45694267 -108.8565778 18.96379422 -96.8125 6.625 C-70.29296651 -18.85373547 -29.77878108 -22.20528485 0 0 Z M-96.0625 17.25 C-103.9943948 27.75528162 -109.8125 41.36133615 -109.8125 54.625 C-66.9125 54.625 -24.0125 54.625 20.1875 54.625 C20.1875 48.56768889 19.92242333 44.35660713 18.125 38.8125 C17.90166992 38.11817871 17.67833984 37.42385742 17.44824219 36.70849609 C11.92687918 20.47118162 -0.65626769 7.28821649 -15.6875 -0.625 C-44.11577526 -14.20538627 -75.70402168 -6.21664295 -96.0625 17.25 Z M-148.8125 63.625 C-149.25486189 66.90924391 -149.25486189 66.90924391 -149.125 70.625 C-149.11919922 72.5121875 -149.11919922 72.5121875 -149.11328125 74.4375 C-149.14553294 77.71700044 -149.14553294 77.71700044 -146.8125 79.625 C-144.10905346 79.82486844 -141.50769423 79.89862879 -138.80285645 79.88569641 C-137.96543049 79.88952196 -137.12800454 79.89334751 -136.26520205 79.89728898 C-133.4430146 79.90765513 -130.62102924 79.90362003 -127.79882812 79.8996582 C-125.78209748 79.90400265 -123.76536848 79.9091849 -121.74864197 79.91514587 C-116.25911327 79.92857507 -110.76965325 79.92911026 -105.28011131 79.92658257 C-100.70470448 79.92551564 -96.1293117 79.93038904 -91.55390787 79.935188 C-80.76460635 79.94629649 -69.97533964 79.94671288 -59.18603516 79.94067383 C-48.03768531 79.93463 -36.88946154 79.94695241 -25.74113321 79.9682439 C-16.18444463 79.98582772 -6.6277963 79.99186641 2.92890787 79.98860615 C8.64330883 79.9867882 14.35761984 79.9894804 20.07200623 80.00332069 C25.44326286 80.01584238 30.81432209 80.01400891 36.18557549 80.00090981 C38.16173302 79.99853217 40.1379042 80.0013208 42.1140461 80.00953293 C44.80221614 80.01990219 47.48971164 80.01197968 50.17785645 79.9992218 C51.36353816 80.01028323 51.36353816 80.01028323 52.57317305 80.02156812 C54.96253442 80.03311427 54.96253442 80.03311427 58.1875 79.625 C60.43416134 76.25500798 60.4332371 75.06394538 60.375 71.125 C60.36855469 70.1659375 60.36210937 69.206875 60.35546875 68.21875 C60.29042931 65.51002233 60.29042931 65.51002233 59.1875 62.625 C56.05104448 61.05677224 52.70374894 61.48446848 49.26051331 61.49128723 C48.01768338 61.4878889 48.01768338 61.4878889 46.74974579 61.48442191 C43.95758025 61.47806296 41.16546302 61.47891248 38.37329102 61.47973633 C36.37788835 61.47674603 34.38248627 61.4733438 32.38708496 61.46955872 C26.95535392 61.46070168 21.52363862 61.4583799 16.09190106 61.45774293 C11.56381371 61.45679526 7.03573005 61.45311863 2.50764412 61.44957083 C-8.17141949 61.44141992 -18.85047466 61.43898719 -29.52954102 61.43969727 C-40.5608265 61.44029834 -51.59206314 61.42974206 -62.62333626 61.4139536 C-72.08152162 61.40089694 -81.53969098 61.39551257 -90.99788529 61.39615268 C-96.65249698 61.3964082 -102.30706527 61.39352703 -107.96166801 61.38297462 C-113.27789632 61.37332502 -118.59403946 61.3731928 -123.91027069 61.38049126 C-125.86504553 61.381541 -127.81982559 61.3791513 -129.77459145 61.3731308 C-132.43600579 61.36546272 -135.09712217 61.37002104 -137.75852966 61.37776184 C-138.5382894 61.37261828 -139.31804914 61.36747471 -140.12143797 61.36217529 C-143.89712144 61.38656685 -145.59000177 61.47666785 -148.8125 63.625 Z M-136.8125 87.625 C-136.915625 113.261875 -137.01875 138.89875 -137.125 165.3125 C-137.17052002 173.41127686 -137.21604004 181.51005371 -137.26293945 189.85424805 C-137.27966028 197.10574572 -137.27966028 197.10574572 -137.28971863 204.35725403 C-137.29438232 207.59054166 -137.31313997 210.82342 -137.34037781 214.05659485 C-137.37465643 218.180101 -137.38495945 222.30301141 -137.37786138 226.42664683 C-137.37934573 227.94037604 -137.38927199 229.45412593 -137.40857565 230.96773279 C-137.43343856 233.01212612 -137.4244668 235.05684759 -137.41377258 237.10136414 C-137.41838155 238.24715281 -137.42299051 239.39294149 -137.42773914 240.57345104 C-136.5943949 244.70678812 -135.1933054 246.14924866 -131.8125 248.625 C-128.42539401 249.37031126 -128.42539401 249.37031126 -124.63916016 249.25318909 C-123.92787775 249.26028347 -123.21659534 249.26737786 -122.48375893 249.27468723 C-120.10580662 249.29225755 -117.72949107 249.2741694 -115.3515625 249.25610352 C-113.6446661 249.26124275 -111.937775 249.26852406 -110.230896 249.27778625 C-105.59857297 249.29630806 -100.96682518 249.28335687 -96.33452606 249.26369596 C-91.48684516 249.24731455 -86.63920083 249.25612164 -81.79150391 249.26121521 C-73.65062264 249.26573673 -65.5099711 249.24986267 -57.36914062 249.22192383 C-47.95719858 249.18987166 -38.54567088 249.18988747 -29.13369942 249.2071386 C-20.07970103 249.22300234 -11.02585454 249.2162711 -1.97186279 249.19920158 C1.88132775 249.19232896 5.73439661 249.19336571 9.58758545 249.20074654 C14.12510006 249.20840766 18.66214314 249.19628902 23.19957733 249.16889763 C24.86485138 249.16201088 26.53016945 249.16191896 28.1954422 249.16911316 C30.46887439 249.17780296 32.74084977 249.16186211 35.01416016 249.1396637 C36.28619293 249.13685678 37.55822571 249.13404985 38.86880493 249.13115788 C42.78348826 248.53410158 44.43682075 247.42924075 47.1875 244.625 C48.28827208 241.32268375 48.31058443 238.89576853 48.30775452 235.4178009 C48.30913201 234.12060277 48.31050951 232.82340464 48.31192875 231.48689747 C48.3083819 230.04049979 48.30474401 228.59410233 48.30102539 227.14770508 C48.30071911 225.6054443 48.30085245 224.06318338 48.30139065 222.52092266 C48.30161668 218.38563811 48.29581497 214.25038241 48.28878021 210.11510468 C48.28309115 206.23668831 48.28281741 202.35827901 48.28210449 198.4798584 C48.27685426 187.13240177 48.26289314 175.78495052 48.25 164.4375 C48.229375 139.089375 48.20875 113.74125 48.1875 87.625 C-12.8625 87.625 -73.9125 87.625 -136.8125 87.625 Z " fill="#000000" transform="translate(155.8125,255.375)"/>
<path d="M0 0 C4.22775417 3.32867009 7.31520854 7.52562907 10.40625 11.89453125 C11.52 11.27578125 12.63375 10.65703125 13.78125 10.01953125 C22.85722531 5.53737121 32.40427221 4.76261593 42.11328125 7.71875 C52.60086423 11.69679872 61.07744343 18.26264894 65.84375 28.64453125 C69.98994423 38.68464283 69.3145335 49.12677589 65.62890625 59.1796875 C63.96789719 62.86787055 61.96376673 65.76867747 59.40625 68.89453125 C60.28667969 69.34183594 61.16710937 69.78914063 62.07421875 70.25 C63.23566406 70.85457031 64.39710938 71.45914063 65.59375 72.08203125 C66.74230469 72.67371094 67.89085937 73.26539062 69.07421875 73.875 C78.68441765 79.69970437 84.18216218 88.80693919 87.09375 99.39453125 C88.4029139 109.86784243 86.53624263 120.19132697 80.1953125 128.796875 C72.99891451 137.23457308 64.69298102 142.91307638 53.40625 143.89453125 C47.84635648 144.15928808 43.67632709 143.65122361 38.40625 141.89453125 C38.28507813 142.62929687 38.16390625 143.3640625 38.0390625 144.12109375 C36.32585953 151.6295759 31.49563055 158.2806968 25.40625 162.89453125 C15.33599412 168.81899786 5.24930066 172.07814949 -6.45703125 169.1875 C-8.12916338 168.64498602 -9.79149102 168.07037837 -11.4375 167.453125 C-15.79718597 166.3237136 -18.97657507 168.56125136 -22.84375 170.45703125 C-32.05561166 174.3262381 -42.11024426 174.38685561 -51.59375 171.26953125 C-61.81121991 166.90374576 -69.58014231 159.53807303 -73.84765625 149.25 C-75.04431395 145.47207019 -75.34305688 141.84294788 -75.59375 137.89453125 C-76.8725 137.58515625 -78.15125 137.27578125 -79.46875 136.95703125 C-87.58046739 134.24459578 -94.46296087 127.53314067 -98.6328125 120.125 C-103.47624045 108.8827343 -103.85110638 98.33220511 -99.59375 86.89453125 C-96.72918619 81.09955158 -93.4457039 76.17566704 -88.59375 71.89453125 C-89.2125 70.86328125 -89.83125 69.83203125 -90.46875 68.76953125 C-95.04523475 59.53483882 -95.70836688 48.66443799 -92.59375 38.89453125 C-88.12494295 27.73870495 -82.08052184 21.61458862 -71.59375 15.89453125 C-68.48236179 14.7343526 -65.92263654 13.90234823 -62.6015625 13.8828125 C-60.35995929 13.82782978 -58.69569901 13.69732902 -56.59375 12.89453125 C-54.83206083 10.8016975 -53.53181919 8.60186572 -52.14453125 6.24609375 C-47.60605321 -0.63593088 -38.99821476 -4.80183588 -31.1484375 -6.6953125 C-19.71465806 -8.53101103 -9.75383349 -6.09614593 0 0 Z M-40.59375 5.89453125 C-41.50125 6.45140625 -42.40875 7.00828125 -43.34375 7.58203125 C-45.67264578 9.72592722 -45.67264578 9.72592722 -46.73046875 12.296875 C-48.13694748 15.24076592 -49.35923084 17.50283109 -51.59375 19.89453125 C-55.13477243 20.91681659 -58.44678254 21.21018852 -62.1171875 21.49609375 C-69.5502157 22.34796889 -75.06869398 26.66039399 -80.08984375 31.99609375 C-85.99797995 39.45415658 -87.50622036 47.5602061 -86.59375 56.89453125 C-85.3626851 61.26420221 -83.87576905 65.34937702 -80.95703125 68.8671875 C-79.22289246 71.44603573 -79.07179721 72.84652391 -79.59375 75.89453125 C-81.1328125 77.34375 -81.1328125 77.34375 -83.21875 78.58203125 C-88.63820209 82.28805088 -92.18595441 87.60247152 -94.234375 93.84765625 C-95.92612152 103.48325601 -94.58607409 112.00947321 -89.0859375 120.1171875 C-83.60893882 126.93159284 -77.24811843 130.71495449 -68.59375 131.89453125 C-68.51898438 132.87292969 -68.44421875 133.85132813 -68.3671875 134.859375 C-67.53250347 143.18166574 -66.37519626 149.52423398 -60.59375 155.89453125 C-60.078125 156.466875 -59.5625 157.03921875 -59.03125 157.62890625 C-53.45937419 163.04005487 -45.82148237 165.97906177 -38.09375 166.39453125 C-31.46035536 166.0604754 -24.87745712 163.73142611 -19.71875 159.58203125 C-17.59375 157.89453125 -17.59375 157.89453125 -15.28125 157.95703125 C-12.59375 158.89453125 -12.59375 158.89453125 -9.15625 160.45703125 C-1.90607182 163.23077366 7.07347869 163.23012994 14.28125 160.33203125 C22.74430824 155.81735148 28.08851736 149.92453399 31.40625 140.89453125 C31.9774436 138.49892824 32.24534678 136.3617139 32.40625 133.89453125 C40.03125 134.76953125 40.03125 134.76953125 43.40625 135.89453125 C53.08693559 136.99492573 60.34838509 135.4239752 68.40625 129.89453125 C74.90721757 124.40273915 78.71521225 117.34446814 79.78515625 108.90625 C80.14039689 99.8877216 77.8187749 93.58987072 72.15625 86.64453125 C64.41426699 78.46340214 56.20969246 76.62477008 45.40625 74.89453125 C45.93646768 70.35310158 45.93646768 70.35310158 48.04296875 68.296875 C48.71972656 67.81347656 49.39648438 67.33007812 50.09375 66.83203125 C56.26590748 61.67188517 59.82929133 55.29562917 60.87890625 47.2890625 C61.14551992 36.47382121 59.10962557 29.85322005 51.734375 21.9453125 C45.00142006 16.01443776 37.22423767 13.53523692 28.3984375 13.60546875 C22.87838397 14.13873763 17.73399496 16.11269271 13.32421875 19.48828125 C10.78633867 21.34904872 8.49089711 21.54400317 5.40625 21.89453125 C5.096875 20.65703125 5.096875 20.65703125 4.78125 19.39453125 C1.37629575 10.72737497 -4.26104589 5.86837859 -12.59375 1.89453125 C-22.28657853 -1.3697891 -32.24535781 0.41939068 -40.59375 5.89453125 Z " fill="#000000" transform="translate(263.59375,7.10546875)"/>
<path d="M0 0 C5.25105442 -0.02464928 10.50207545 -0.04283568 15.75317383 -0.05493164 C17.54094021 -0.05997218 19.32870245 -0.06680454 21.11645508 -0.07543945 C23.68051168 -0.0875173 26.24451397 -0.09323094 28.80859375 -0.09765625 C29.6127623 -0.10281754 30.41693085 -0.10797882 31.24546814 -0.11329651 C33.16401715 -0.11349215 35.08245368 -0.06201983 37 0 C37.495 0.495 37.495 0.495 38 1 C37.5739088 5.98765994 36.37415535 9.97854596 34.3125 14.51953125 C33.77882813 15.70611328 33.24515625 16.89269531 32.6953125 18.11523438 C32.13037064 19.34773066 31.56526469 20.58015174 31 21.8125 C30.43408719 23.06408781 29.86897576 24.31603829 29.3046875 25.56835938 C25.41419643 34.17160714 25.41419643 34.17160714 24 37 C32.91 37 41.82 37 51 37 C51.495 39.475 51.495 39.475 52 42 C50.33187205 44.43826731 48.74135761 46.41869539 46.75 48.5625 C46.20512939 49.1723877 45.66025879 49.78227539 45.09887695 50.41064453 C43.41442726 52.28820809 41.70976091 54.14548693 40 56 C38.99812706 57.09974064 37.99679608 58.19997532 36.99609375 59.30078125 C35.1574926 61.31717911 33.31051551 63.32540528 31.45703125 65.328125 C28.8315096 68.18322326 26.2733216 71.08765244 23.734375 74.01953125 C21.72735462 76.31133155 19.67597149 78.55996752 17.625 80.8125 C14.4388461 84.34002754 11.37418039 87.93723228 8.375 91.625 C7.26511719 92.98625 7.26511719 92.98625 6.1328125 94.375 C4.76636664 96.05677952 3.40636682 97.74382953 2.0546875 99.4375 C1.16136719 100.5203125 1.16136719 100.5203125 0.25 101.625 C-0.51570313 102.57246094 -0.51570313 102.57246094 -1.296875 103.5390625 C-3.48318983 105.41447935 -5.15904665 105.7342334 -8 106 C-8.66 105.67 -9.32 105.34 -10 105 C-9.47212309 98.88345609 -8.45622534 93.48828121 -6.49609375 87.68359375 C-6.2533522 86.94166275 -6.01061066 86.19973175 -5.76051331 85.43531799 C-4.99436558 83.09991823 -4.21619089 80.76874357 -3.4375 78.4375 C-2.91130348 76.84076014 -2.38590569 75.24375684 -1.86132812 73.64648438 C-0.58487055 69.76064908 0.70782692 65.8807768 2 62 C-10.87 61.505 -10.87 61.505 -24 61 C-25.12499784 54.25001296 -25.12499784 54.25001296 -23.46459961 50.66967773 C-23.10349594 49.87121933 -22.74239227 49.07276093 -22.37034607 48.25010681 C-21.9684053 47.4031575 -21.56646454 46.55620819 -21.15234375 45.68359375 C-20.74343399 44.7906813 -20.33452423 43.89776886 -19.91322327 42.97779846 C-18.60233795 40.12414994 -17.27038089 37.28093102 -15.9375 34.4375 C-15.06694667 32.55208394 -14.19779158 30.6660216 -13.33007812 28.77929688 C-11.27075912 24.30958353 -9.19545455 19.84755707 -7.11346436 15.3883667 C-5.52597533 11.98322318 -3.95187469 8.57203163 -2.37890625 5.16015625 C-1.91170166 4.14703369 -1.44449707 3.13391113 -0.96313477 2.09008789 C-0.64530029 1.40035889 -0.32746582 0.71062988 0 0 Z M5 7 C0.65822358 16.6629009 -3.67612579 26.32907479 -8 36 C-8.42990234 36.96083496 -8.85980469 37.92166992 -9.30273438 38.91162109 C-10.31040379 41.16832577 -11.31297372 43.42717973 -12.3125 45.6875 C-13.11107422 47.48767578 -13.11107422 47.48767578 -13.92578125 49.32421875 C-15.12418609 51.82877666 -15.12418609 51.82877666 -15 54 C-6.42 54 2.16 54 11 54 C9.87723368 62.98213054 9.87723368 62.98213054 8.5546875 66.83203125 C8.28269531 67.64994141 8.01070312 68.46785156 7.73046875 69.31054688 C7.15335928 70.99839445 6.57521043 72.68588694 5.99609375 74.37304688 C5.72667969 75.18451172 5.45726562 75.99597656 5.1796875 76.83203125 C4.92944824 77.56139893 4.67920898 78.2907666 4.42138672 79.04223633 C3.78355273 81.19860749 3.78355273 81.19860749 5 84 C9.54305591 79.04882086 13.99272767 74.06385032 18.1875 68.8125 C22.61574937 63.31644582 27.4069617 58.20723365 32.3034668 53.1262207 C32.88265869 52.51866943 33.46185059 51.91111816 34.05859375 51.28515625 C34.57736084 50.74769775 35.09612793 50.21023926 35.63061523 49.65649414 C37.31471057 47.74591358 37.31471057 47.74591358 39 44 C31.41 43.67 23.82 43.34 16 43 C14.83166485 38.32665942 15.83750449 36.26564802 17.74609375 32.1171875 C18.03605728 31.46170929 18.32602081 30.80623108 18.62477112 30.13088989 C19.55157608 28.04059327 20.49373071 25.95768518 21.4375 23.875 C22.37493838 21.7840683 23.30909776 19.69175105 24.23951721 17.59768677 C24.81907796 16.29567884 25.40321087 14.99569477 25.99229431 13.69796753 C27.5114996 10.47638039 27.5114996 10.47638039 28 7 C20.41 7 12.82 7 5 7 Z " fill="#000000" transform="translate(239,44)"/>
<path d="M0 0 C7.35364908 4.245542 12.03346548 8.77640619 16.171875 16.25390625 C16.51347656 16.8571875 16.85507813 17.46046875 17.20703125 18.08203125 C21.65436234 27.59725126 19.83843515 39.56032912 16.5 49.1171875 C11.76009378 60.31173073 5.56030936 69.67520764 -5.4453125 75.30859375 C-12.18676032 77.98306977 -18.58688824 77.75819042 -25.3828125 75.3828125 C-36.95642689 70.03972215 -43.37052373 59.7259508 -47.82421875 48.1875 C-51.56867315 37.24553403 -52.20651147 26.58133721 -47.203125 15.87890625 C-38.00259054 -0.66897445 -17.61173059 -8.48081657 0 0 Z M-37.828125 15.25390625 C-43.12529596 23.45503594 -44.15943976 31.87803133 -42.1796875 41.359375 C-38.79823468 52.52972982 -32.0665031 62.46825971 -21.82421875 68.41796875 C-17.86209861 70.07725194 -13.8578427 69.8400069 -9.8125 68.671875 C-1.27882506 64.99298757 4.36544245 57.16754691 8.13671875 48.921875 C11.5957206 40.0067872 13.73379613 31.3212749 10.37890625 22.06640625 C6.27627502 13.22481731 1.11431325 8.9035843 -7.828125 5.25390625 C-19.76878473 1.68517524 -29.85172993 6.27047132 -37.828125 15.25390625 Z " fill="#000000" transform="translate(126.828125,155.74609375)"/>
<path d="M0 0 C9.01738542 6.64019545 14.9814874 14.14324374 16.78125 25.33984375 C17.89744174 38.91353254 13.49924464 50.87474697 6 62 C5.4225 62.886875 4.845 63.77375 4.25 64.6875 C-2.16078099 71.27635824 -9.12152426 75.72758512 -18.3671875 76.09375 C-27.35347581 75.75781399 -34.05031184 71.33821359 -40.1875 65 C-49.52784875 53.80294907 -53.60443012 41.23529785 -53.375 26.82421875 C-52.46312387 17.52498192 -48.2002444 9.02031608 -41 3 C-29.03430731 -4.75648448 -12.81658154 -8.0672899 0 0 Z M-40 13 C-44.37589155 19.48406847 -46.54379907 26.15674418 -46 34 C-45.04311261 38.49737075 -43.65521129 42.71428458 -42 47 C-41.70996094 47.75410156 -41.41992188 48.50820312 -41.12109375 49.28515625 C-37.73681796 56.91874693 -31.79416634 64.11808607 -24 67.40625 C-19.70849294 68.68029116 -16.19824736 68.89303799 -12 67.1875 C-1.74863193 61.42110546 5.02604969 51.16843554 8.3125 40.0625 C10.11141429 31.39976709 9.72202704 23.60538868 5 16 C0.07822918 8.99737924 -5.5852072 4.7889717 -14 3 C-23.70006315 2.14911727 -33.66704242 5.33118418 -40 13 Z " fill="#000000" transform="translate(410,157)"/>
<path d="M0 0 C1.98 0 3.96 0 6 0 C6 18.48 6 36.96 6 56 C3.525 56.495 3.525 56.495 1 57 C-1 55 -1 55 -1.24723816 52.71617126 C-1.24581314 51.76432449 -1.24438812 50.81247772 -1.24291992 49.83178711 C-1.24599655 48.75404526 -1.24907318 47.67630341 -1.25224304 46.56590271 C-1.24505753 45.39817825 -1.23787201 44.2304538 -1.23046875 43.02734375 C-1.23001053 41.83395889 -1.22955231 40.64057404 -1.2290802 39.411026 C-1.22605506 36.88492846 -1.218161 34.35883283 -1.20581055 31.83276367 C-1.18756013 27.95029142 -1.18530076 24.06805752 -1.18554688 20.18554688 C-1.1806317 17.73697709 -1.17480338 15.28840893 -1.16796875 12.83984375 C-1.16685593 11.67009506 -1.1657431 10.50034637 -1.16459656 9.29515076 C-1.15502678 7.68326622 -1.15502678 7.68326622 -1.14526367 6.03881836 C-1.14145187 5.08776718 -1.13764008 4.136716 -1.13371277 3.15684509 C-1 1 -1 1 0 0 Z " fill="#000000" transform="translate(506,402)"/>
<path d="M0 0 C1.875 0.75 1.875 0.75 2.875 2.75 C3.11549626 6.39058786 3.06019282 10.03984819 3.0625 13.6875 C3.07474609 14.70263672 3.08699219 15.71777344 3.09960938 16.76367188 C3.10250977 18.22450195 3.10250977 18.22450195 3.10546875 19.71484375 C3.10957764 20.6080835 3.11368652 21.50132324 3.11791992 22.42163086 C2.875 24.75 2.875 24.75 0.875 27.75 C-4 26.875 -4 26.875 -5.125 25.75 C-5.40511184 21.7779293 -5.35679176 17.79327584 -5.375 13.8125 C-5.395625 12.68908203 -5.41625 11.56566406 -5.4375 10.40820312 C-5.44265625 9.33634766 -5.4478125 8.26449219 -5.453125 7.16015625 C-5.4624707 6.17152588 -5.47181641 5.18289551 -5.48144531 4.16430664 C-5.36381836 3.36758545 -5.24619141 2.57086426 -5.125 1.75 C-2.125 -0.25 -2.125 -0.25 0 0 Z " fill="#000000" transform="translate(37.125,407.25)"/>
<path d="M0 0 C1.875 0.75 1.875 0.75 2.875 2.75 C2.97085131 4.39356807 3.00483511 6.04114642 3 7.6875 C3.00257812 8.56277344 3.00515625 9.43804687 3.0078125 10.33984375 C2.875 12.75 2.875 12.75 1.875 15.75 C-0.12454746 15.79254356 -2.12541636 15.79080783 -4.125 15.75 C-6.00225894 13.87274106 -5.34202304 10.82149693 -5.375 8.3125 C-5.40078125 7.13816406 -5.4265625 5.96382813 -5.453125 4.75390625 C-5.34484375 3.76261719 -5.2365625 2.77132813 -5.125 1.75 C-2.125 -0.25 -2.125 -0.25 0 0 Z " fill="#000000" transform="translate(37.125,382.25)"/>
<path d="M0 0 C1.65 0.33 3.3 0.66 5 1 C5 5.95 5 10.9 5 16 C3.68 16.33 2.36 16.66 1 17 C0.01 16.34 -0.98 15.68 -2 15 C-2.36328125 12.03125 -2.36328125 12.03125 -2.3125 8.5 C-2.30863281 7.3346875 -2.30476563 6.169375 -2.30078125 4.96875 C-2 2 -2 2 0 0 Z " fill="#000000" transform="translate(507,375)"/>
</svg>
