<?xml version="1.0" encoding="UTF-8"?>
<svg version="1.1" xmlns="http://www.w3.org/2000/svg" width="512" height="512">
<path d="M0 0 C0.93309722 -0.01228109 1.86619444 -0.02456217 2.82756734 -0.03721541 C3.84934221 -0.03033888 4.87111708 -0.02346236 5.92385483 -0.01637745 C7.01193648 -0.02473411 8.10001813 -0.03309077 9.22107196 -0.04170066 C12.87997451 -0.06474469 16.53826854 -0.05905567 20.19723129 -0.05344105 C22.81535647 -0.0637687 25.43347555 -0.07575613 28.05158615 -0.08928394 C34.43324765 -0.11866021 40.81475108 -0.12593291 47.19647321 -0.12470844 C52.38464045 -0.12387633 57.57275768 -0.12973284 62.76091385 -0.14033413 C79.0752494 -0.17302383 95.38943104 -0.18199254 111.70379457 -0.17324439 C124.56991548 -0.16726522 137.43565501 -0.19764135 150.30168083 -0.24486711 C163.51398242 -0.29298525 176.72610046 -0.31504055 189.93849158 -0.30955631 C197.35561694 -0.30698065 204.77237723 -0.31495094 212.18942642 -0.35062695 C219.16636503 -0.38392142 226.14248392 -0.38080712 233.11944389 -0.35318279 C235.68006101 -0.34872027 238.24073104 -0.35620883 240.80127144 -0.37652683 C244.29807607 -0.40239383 247.79211764 -0.38508294 251.28884506 -0.35695362 C252.30169705 -0.37461503 253.31454903 -0.39227644 254.3580935 -0.41047305 C260.82629861 -0.29801716 264.11161148 1.12988544 268.69953465 5.72210711 C269.2475929 6.31268745 269.79565115 6.90326779 270.36031723 7.5117445 C271.38041235 8.50203856 272.40372323 9.48904955 273.43246078 10.47036266 C274.4155463 11.45359285 275.39598306 12.43947731 276.37398911 13.42776012 C276.9182605 13.97349178 277.46253189 14.51922344 278.02329636 15.08149242 C279.18926207 16.2512248 280.35407292 17.4221093 281.51780319 18.59406567 C283.36647598 20.45566482 285.21839684 22.31397954 287.07113266 24.17153454 C291.66912131 28.78279363 296.26161162 33.39951598 300.85427475 38.016078 C304.74667298 41.92830432 308.64118002 45.8384088 312.53843307 49.74579906 C314.35057528 51.56435741 316.15964566 53.38593246 317.9685936 55.20766735 C323.0661157 60.32764674 328.17787854 65.36985104 333.67986679 70.06060314 C336.26212807 72.29049701 338.6530563 74.67468812 341.06734848 77.08596325 C341.55942291 77.57708096 342.05149734 78.06819866 342.55848312 78.57419872 C343.58211449 79.59715819 344.60451904 80.62134673 345.62569809 81.64675426 C347.18388986 83.21035557 348.74742205 84.76847567 350.31148911 86.32619762 C351.3137634 87.32913198 352.31572785 88.33237608 353.31734848 89.33596325 C354.21429428 90.23403698 355.11124008 91.13211071 356.03536606 92.0573988 C357.99616476 94.12732522 359.71757136 96.1872574 361.36031723 98.5117445 C359.97014311 101.64752762 358.34698028 103.77186314 355.91891098 106.1836195 C355.2531102 106.84748669 354.58730942 107.51135387 353.90133286 108.19533825 C352.86009262 109.21820934 352.86009262 109.21820934 351.79781723 110.2617445 C351.09978989 110.95912731 350.40176254 111.65651012 349.68258286 112.37502575 C344.50062881 117.5117445 344.50062881 117.5117445 343.36031723 117.5117445 C343.36031723 115.8617445 343.36031723 114.2117445 343.36031723 112.5117445 C341.70114273 112.52506817 341.70114273 112.52506817 340.00844955 112.538661 C329.59072254 112.61970369 319.17305938 112.67968919 308.75508881 112.71899319 C303.39891815 112.73987904 298.04300172 112.76821514 292.68697739 112.81350231 C287.51930107 112.85692411 282.35186946 112.88087409 277.18402481 112.89125347 C275.21120221 112.89865141 273.23839318 112.91309769 271.26567459 112.93466473 C268.5049342 112.96364993 265.74520843 112.96770255 262.98434067 112.96584606 C262.16650604 112.98022717 261.34867142 112.99460827 260.50605392 113.00942516 C255.07060943 112.96980521 254.48392684 112.63535411 250.36031723 108.5117445 C250.36031723 78.1517445 250.36031723 47.7917445 250.36031723 16.5117445 C170.17031723 16.5117445 89.98031723 16.5117445 7.36031723 16.5117445 C7.36031723 174.9117445 7.36031723 333.3117445 7.36031723 496.5117445 C118.24031723 496.5117445 229.12031723 496.5117445 343.36031723 496.5117445 C342.76672348 416.22766316 342.76672348 416.22766316 342.00899887 335.94509411 C341.94124985 320.39760876 341.94124985 320.39760876 341.92866135 313.11307812 C341.91471606 308.03773149 341.85863939 302.96475133 341.77668381 297.89005566 C341.67334373 291.40474131 341.64302617 284.9228385 341.66423309 278.43677723 C341.65980303 276.06417107 341.63030869 273.69143869 341.57209027 271.31954277 C341.11499958 251.78013496 341.11499958 251.78013496 348.79673618 243.50731999 C357.16611665 235.5117445 357.16611665 235.5117445 359.36031723 235.5117445 C359.45182454 270.22222164 359.5223314 304.9326713 359.56457855 339.64324297 C359.56958152 343.73889602 359.57475879 347.83454883 359.58004379 351.93020153 C359.58109303 352.74559012 359.58214228 353.56097871 359.58322331 354.40107605 C359.60064001 367.61275749 359.63218463 380.82436949 359.66892841 394.0360097 C359.70630271 407.58713339 359.72854564 421.13822064 359.73667121 434.68939376 C359.74216629 443.05472606 359.75953686 451.41986209 359.7919831 459.78513399 C359.81308769 465.51747525 359.81952652 471.24971468 359.81432274 476.98209199 C359.81175457 480.29202701 359.81792725 483.60154483 359.83713913 486.91143513 C359.85693575 490.49676464 359.85229339 494.08124295 359.8413353 497.66659069 C359.85298666 498.71716821 359.86463803 499.76774573 359.87664247 500.85015893 C359.86867827 501.80909012 359.86071408 502.7680213 359.85250854 503.75601101 C359.85402743 504.58380133 359.85554631 505.41159165 359.85711122 506.26446652 C359.15511181 509.44000379 357.96046578 510.59348099 355.36031723 512.5117445 C352.55979538 513.01314116 352.55979538 513.01314116 349.25704575 513.01510906 C347.99752594 513.02554005 346.73800613 513.03597104 345.44031906 513.04671812 C344.03995157 513.0380696 342.63958637 513.02904297 341.23922348 513.01967907 C339.75368767 513.02428644 338.26815642 513.03063826 336.78263474 513.03858805 C332.69470447 513.05532722 328.60714645 513.04701437 324.51921463 513.03464317 C320.11286996 513.02561367 315.70659047 513.03955194 311.30025864 513.05056286 C302.66598262 513.06837518 294.03184546 513.06449605 285.39756393 513.05291229 C278.3820443 513.0438889 271.36656366 513.04264923 264.35103989 513.04700756 C263.35360669 513.04762049 262.3561735 513.04823343 261.32851505 513.04886493 C259.3024241 513.0501438 257.27633316 513.05144065 255.25024223 513.0527553 C236.23921074 513.06416904 217.22825633 513.05103494 198.21723747 513.02955383 C181.89510045 513.01168213 165.5730772 513.01478602 149.25094223 513.03322887 C130.30922699 513.05462156 111.36757936 513.06307033 92.42585373 513.05077982 C90.40710069 513.04950559 88.38834764 513.0482481 86.36959457 513.04700756 C84.87958923 513.04608191 84.87958923 513.04608191 83.35948277 513.04513755 C76.35014159 513.04167984 69.34084319 513.04752205 62.33150864 513.05692577 C53.79266611 513.06812936 45.25397072 513.06514034 36.71514511 513.0438028 C32.35616581 513.03327021 27.99743207 513.02920795 23.63845444 513.04239941 C19.65118775 513.05428372 15.66439514 513.04782687 11.67717171 513.0264892 C10.2317432 513.02200622 8.78627496 513.02432728 7.34087181 513.03399235 C5.38180469 513.04609133 3.42262601 513.03133326 1.46358871 513.01510906 C-0.17127235 513.01413495 -0.17127235 513.01413495 -1.83916092 513.01314116 C-4.63968277 512.5117445 -4.63968277 512.5117445 -6.98967695 511.00229502 C-9.3223538 507.48130772 -9.19103205 504.24310058 -9.14304733 500.15957165 C-9.1488611 499.30521432 -9.15467486 498.45085699 -9.1606648 497.57061005 C-9.17534249 494.68807585 -9.16134343 491.80638283 -9.14761734 488.92385387 C-9.15222318 486.84434859 -9.15857395 484.76484655 -9.16652632 482.68535137 C-9.18328624 476.95563006 -9.17494302 471.22617387 -9.16258144 465.49645138 C-9.15356048 459.3232264 -9.16748597 453.15004819 -9.17850113 446.97683239 C-9.19529163 435.57735765 -9.19379178 424.17799147 -9.18285526 412.77851939 C-9.17280212 402.24842321 -9.17016198 391.71835817 -9.17494583 381.18825817 C-9.17525137 380.49039485 -9.17555691 379.79253153 -9.17587171 379.07352084 C-9.17711702 376.2408296 -9.17839061 373.40813838 -9.17971077 370.57544717 C-9.19195309 343.9901651 -9.18084291 317.40493713 -9.15932318 290.81966341 C-9.14034004 267.18834895 -9.14203852 243.5571207 -9.16116714 219.925807 C-9.18257503 193.38986672 -9.19108495 166.85397426 -9.17871809 140.31802654 C-9.17743518 137.49042798 -9.17618382 134.66282941 -9.17494583 131.83523083 C-9.17462952 131.13897868 -9.17431321 130.44272653 -9.17398732 129.72537583 C-9.16943302 119.20062039 -9.17476672 108.67589946 -9.18486404 98.1511488 C-9.19628514 86.1867714 -9.19308967 74.22249587 -9.17174107 62.25812244 C-9.16120148 56.14933648 -9.15715829 50.04072585 -9.17033768 43.93194103 C-9.18220721 38.34595816 -9.17578916 32.76031407 -9.15442747 27.17436218 C-9.14993825 25.14750951 -9.1522792 23.12062854 -9.16193062 21.09379387 C-9.17399916 18.35008799 -9.16171738 15.60756045 -9.14304733 12.86391735 C-9.15709433 11.66850936 -9.15709433 11.66850936 -9.1714251 10.44895172 C-9.12397863 6.98830076 -8.90498594 4.89108389 -6.89820266 2.02171773 C-4.3327621 0.30654728 -3.05944931 0.00864621 0 0 Z M266.36031723 29.5117445 C266.36031723 51.6217445 266.36031723 73.7317445 266.36031723 96.5117445 C288.47031723 96.5117445 310.58031723 96.5117445 333.36031723 96.5117445 C329.4009202 91.89244797 325.47930694 87.48518771 321.18722153 83.20925426 C320.60273743 82.62301785 320.01825333 82.03678143 319.41605759 81.43278027 C317.5080362 79.52040231 315.59643432 77.61165211 313.68453598 75.70315075 C312.3501461 74.3680866 311.01590465 73.03287408 309.68180466 71.69752026 C306.89877308 68.9130206 304.11395601 66.13032257 301.32784653 63.3489027 C297.74865119 59.77543752 294.17400862 56.19745683 290.60066128 52.61814499 C287.85308927 49.86697168 285.10315523 47.11816935 282.35248375 44.37009525 C281.03237854 43.05065879 279.71302034 41.73047451 278.39441109 40.40954304 C276.56082136 38.57343028 274.7240858 36.74052532 272.88644028 34.90847301 C272.33841751 34.35842602 271.79039474 33.80837902 271.22576523 33.24166393 C269.14330829 30.66875379 269.14330829 30.66875379 266.36031723 29.5117445 Z " fill="#000000" transform="translate(8.63968276977539,-0.511744499206543)"/>
<path d="M0 0 C2.48695374 1.34410095 2.48695374 1.34410095 4.41821289 3.25366211 C5.15830093 3.96538071 5.89838898 4.6770993 6.66090393 5.41038513 C7.4237822 6.19148148 8.18666046 6.97257782 8.97265625 7.77734375 C9.78117538 8.57725235 10.58969452 9.37716095 11.42271423 10.2013092 C13.12191168 11.89439669 14.80985406 13.59884589 16.48706055 15.3137207 C19.0546644 17.92951733 21.66673878 20.49382816 24.28710938 23.05664062 C25.935185 24.71066377 27.58046644 26.36747675 29.22265625 28.02734375 C30.39430077 29.17166115 30.39430077 29.17166115 31.58961487 30.33909607 C32.30133347 31.07918411 33.01305206 31.81927216 33.74633789 32.58178711 C34.69157066 33.53776039 34.69157066 33.53776039 35.65589905 34.51304626 C37.72967168 38.35009182 37.88554983 41.73930915 37 46 C34.92928128 49.38294384 32.22254128 51.99318631 29.39186096 54.75099182 C28.57333348 55.58355922 27.75480599 56.41612662 26.91147465 57.27392334 C24.64166547 59.57337828 22.35280916 61.85162669 20.0542475 64.12227452 C17.57770968 66.57842775 15.12724024 69.06036005 12.67329407 71.53904724 C7.86456955 76.38777746 3.03184541 81.21187831 -1.80994236 86.0275699 C-5.74471209 89.94200837 -9.67060216 93.86515011 -13.59031868 97.79466057 C-14.14834314 98.35406413 -14.70636761 98.91346769 -15.2813019 99.48982288 C-16.41490446 100.62630298 -17.54848681 101.76280325 -18.68204916 102.89932346 C-29.3108337 113.55376777 -39.9670222 124.18045916 -50.63279099 134.79786199 C-59.78254234 143.90740366 -68.90843921 153.04028487 -78.01733398 162.19067383 C-88.59694397 172.81845504 -99.19101112 183.43147329 -109.8085466 194.02137607 C-110.94082972 195.15079227 -112.07309407 196.28022728 -113.20533943 197.40968132 C-113.7624233 197.96537671 -114.31950716 198.52107209 -114.89347235 199.09360673 C-118.81694151 203.00930726 -122.72987461 206.93534977 -126.63885307 210.86551094 C-131.40340791 215.65531596 -136.18368248 220.42873586 -140.98478543 225.1819166 C-143.43377779 227.60726555 -145.87503998 230.03923564 -148.2973175 232.49129105 C-150.92764719 235.14615986 -153.58403901 237.77183223 -156.24900818 240.39186096 C-157.00876416 241.17169344 -157.76852014 241.95152592 -158.55129904 242.75498968 C-162.2147491 246.2992819 -164.65803178 248.45384284 -169.89150238 248.559515 C-173.62353916 248.28732926 -175.70729798 247.42679524 -178.41821289 244.74633789 C-179.15830093 244.03461929 -179.89838898 243.3229007 -180.66090393 242.58961487 C-181.4237822 241.80851852 -182.18666046 241.02742218 -182.97265625 240.22265625 C-183.78117538 239.42274765 -184.58969452 238.62283905 -185.42271423 237.7986908 C-187.12191168 236.10560331 -188.80985406 234.40115411 -190.48706055 232.6862793 C-193.0546644 230.07048267 -195.66673878 227.50617184 -198.28710938 224.94335938 C-199.935185 223.28933623 -201.58046644 221.63252325 -203.22265625 219.97265625 C-204.39430077 218.82833885 -204.39430077 218.82833885 -205.58961487 217.66090393 C-206.65719276 216.55077187 -206.65719276 216.55077187 -207.74633789 215.41821289 C-208.37649307 214.78089737 -209.00664825 214.14358185 -209.65589905 213.48695374 C-211.72967168 209.64990818 -211.88554983 206.26069085 -211 202 C-208.92928128 198.61705616 -206.22254128 196.00681369 -203.39186096 193.24900818 C-202.57333348 192.41644078 -201.75480599 191.58387338 -200.91147465 190.72607666 C-198.64166547 188.42662172 -196.35280916 186.14837331 -194.0542475 183.87772548 C-191.57770968 181.42157225 -189.12724024 178.93963995 -186.67329407 176.46095276 C-181.86456955 171.61222254 -177.03184541 166.78812169 -172.19005764 161.9724301 C-168.25528791 158.05799163 -164.32939784 154.13484989 -160.40968132 150.20533943 C-159.85165686 149.64593587 -159.29363239 149.08653231 -158.7186981 148.51017712 C-157.58509554 147.37369702 -156.45151319 146.23719675 -155.31795084 145.10067654 C-144.6891663 134.44623223 -134.0329778 123.81954084 -123.36720901 113.20213801 C-114.21745766 104.09259634 -105.09156079 94.95971513 -95.98266602 85.80932617 C-85.40305603 75.18154496 -74.80898888 64.56852671 -64.1914534 53.97862393 C-63.05917028 52.84920773 -61.92690593 51.71977272 -60.79466057 50.59031868 C-60.2375767 50.03462329 -59.68049284 49.47892791 -59.10652765 48.90639327 C-55.18305849 44.99069274 -51.27012539 41.06465023 -47.36114693 37.13448906 C-42.59659209 32.34468404 -37.81631752 27.57126414 -33.01521457 22.8180834 C-30.56622221 20.39273445 -28.12496002 17.96076436 -25.7026825 15.50870895 C-23.07235281 12.85384014 -20.41596099 10.22816777 -17.75099182 7.60813904 C-16.61135785 6.43839032 -16.61135785 6.43839032 -15.44870096 5.24501032 C-10.54709486 0.50283447 -6.87773093 -1.44035337 0 0 Z M-6.31683594 21.19263744 C-6.88148007 21.75766129 -7.4461242 22.32268515 -8.02787876 22.90483093 C-9.0027327 23.8766983 -9.0027327 23.8766983 -9.99728066 24.86819935 C-11.07848597 25.95377392 -11.07848597 25.95377392 -12.18153381 27.0612793 C-12.94192898 27.82082004 -13.70232414 28.58036077 -14.48576158 29.3629179 C-17.05547729 31.93097499 -19.62158197 34.50261109 -22.18774414 37.07421875 C-24.02016599 38.90692242 -25.85280757 40.73940642 -27.68565369 42.57168579 C-31.64279713 46.52830373 -35.59809892 50.48675511 -39.55217171 54.44644165 C-45.26916897 60.1715503 -50.98891069 65.89391048 -56.70933586 71.61559379 C-65.98925089 80.89769991 -75.26692845 90.18203911 -84.54321289 99.46777344 C-93.55669286 108.49042605 -102.57121779 117.51203253 -111.5871582 126.53222656 C-112.14247666 127.08780774 -112.69779511 127.64338892 -113.2699414 128.21580589 C-116.05569083 131.00286032 -118.84146091 133.78989411 -121.62724125 136.57691765 C-144.75469584 159.71474662 -167.878525 182.85619564 -191 206 C-190.04359074 207.12203297 -189.08629732 208.24331233 -188.12863159 209.36427307 C-187.59563383 209.98876626 -187.06263607 210.61325945 -186.51348686 211.25667667 C-184.79249612 213.23901519 -182.99709481 215.1169148 -181.1328125 216.96484375 C-180.47539062 217.61904297 -179.81796875 218.27324219 -179.140625 218.94726562 C-178.47546875 219.60404297 -177.8103125 220.26082031 -177.125 220.9375 C-176.43664062 221.62134766 -175.74828125 222.30519531 -175.0390625 223.00976562 C-173.36166359 224.67551593 -171.68151054 226.33840361 -170 228 C-164.86088271 223.69885827 -160.05176834 219.19227216 -155.32472229 214.44497681 C-154.58370189 213.70481083 -153.84268149 212.96464486 -153.07920593 212.20204961 C-150.61105311 209.73553636 -148.14647785 207.26547998 -145.68188477 204.79541016 C-143.90769066 203.02093382 -142.13327602 201.24667796 -140.35865784 199.47262573 C-136.54582423 195.66001942 -132.73452268 191.84589202 -128.92462349 188.03035355 C-123.41623505 182.51381712 -117.90506749 177.00006395 -112.39323091 171.48697297 C-103.44940398 162.5409607 -94.50780969 153.59272038 -85.56762695 144.64306641 C-76.88618567 135.95243761 -68.20368839 127.26286605 -59.51977539 118.57470703 C-58.71604518 117.77058274 -58.71604518 117.77058274 -57.896078 116.95021351 C-55.20785685 114.26068726 -52.51961499 111.57118171 -49.83136284 108.88168645 C-27.55103121 86.59099832 -5.27436361 64.29665185 17 42 C16.04320234 40.87801611 15.08559219 39.75672505 14.12763977 38.63572693 C13.5944579 38.01123374 13.06127604 37.38674055 12.51193714 36.74332333 C10.79829434 34.7674254 9.01551252 32.88622827 7.16796875 31.03515625 C6.51505859 30.38095703 5.86214844 29.72675781 5.18945312 29.05273438 C4.52880859 28.39595703 3.86816406 27.73917969 3.1875 27.0625 C2.50751953 26.37865234 1.82753906 25.69480469 1.12695312 24.99023438 C0.48048828 24.34505859 -0.16597656 23.69988281 -0.83203125 23.03515625 C-1.41702393 22.4512915 -2.0020166 21.86742676 -2.60473633 21.26586914 C-4.46380559 19.57532295 -4.46380559 19.57532295 -6.31683594 21.19263744 Z " fill="#000000" transform="translate(391,108)"/>
<path d="M0 0 C0.72364746 0.0211084 1.44729492 0.0422168 2.19287109 0.06396484 C10.56411849 0.47793792 17.57011803 3.02971836 23.7734375 8.77734375 C31.75383025 17.98399197 33.05556072 26.84707268 32.53222656 38.58398438 C31.95057611 46.13460201 28.48322313 50.74315896 23.43969727 56.17700195 C22.95569993 56.69859799 22.47170259 57.22019403 21.97303867 57.75759602 C16.65590026 63.45389085 11.16792307 68.97731364 5.65234375 74.48046875 C4.57411931 75.55936926 3.49604315 76.63841797 2.41810608 77.71760559 C0.18700879 79.95015926 -2.04584191 82.18093921 -4.2800293 84.41040039 C-7.14492297 87.26952803 -10.00520879 90.13321732 -12.86425114 92.99819469 C-15.07656349 95.21410986 -17.29123835 97.42765142 -19.50665092 99.64046669 C-20.56356632 100.69671561 -21.61974105 101.75370622 -22.67515755 102.81145287 C-24.13919167 104.27801633 -25.60637405 105.74135445 -27.07446289 107.20385742 C-27.90732315 108.03592209 -28.74018341 108.86798676 -29.59828186 109.7252655 C-32.64502323 112.58111387 -35.13296448 113.2221018 -39.35083008 113.15036011 C-44.18059031 112.03462846 -47.34849729 108.05486722 -50.71875 104.62890625 C-51.96694519 103.39574928 -51.96694519 103.39574928 -53.24035645 102.13768005 C-54.99145494 100.39639201 -56.7324471 98.64488937 -58.46386719 96.8840332 C-61.11468566 94.19795155 -63.80767862 91.56022388 -66.5078125 88.92382812 C-68.20586315 87.22408519 -69.90126862 85.52169474 -71.59375 83.81640625 C-72.39985718 83.03165421 -73.20596436 82.24690216 -74.03649902 81.43836975 C-75.13894958 80.29820656 -75.13894958 80.29820656 -76.26367188 79.13500977 C-76.91460815 78.47992935 -77.56554443 77.82484894 -78.23620605 77.1499176 C-80.34018796 73.32474184 -80.45648161 69.88546648 -79.625 65.625 C-77.92284702 63.03778761 -76.57783507 61.36714173 -74.39941406 59.2824707 C-73.84322891 58.71533356 -73.28704376 58.14819641 -72.71400452 57.56387329 C-70.87766869 55.7033131 -69.01088075 53.87719263 -67.140625 52.05078125 C-65.84504367 50.75675791 -64.55102034 49.461173 -63.25848389 48.16410828 C-60.54511025 45.45100345 -57.81694534 42.75403015 -55.07666016 40.06811523 C-51.5880173 36.64722973 -48.13324524 33.19444713 -44.68851089 29.72941303 C-42.0179555 27.04875992 -39.33251092 24.38343443 -36.64226532 21.72255516 C-35.36427975 20.45601488 -34.09019126 19.18552836 -32.82032013 17.91085243 C-23.66865959 8.75341541 -13.87989127 -0.73016963 0 0 Z M-15.61740875 26.03767872 C-17.20145006 27.63537071 -18.77265324 29.24505445 -20.34375 30.85546875 C-21.45222833 31.97328541 -22.56182535 33.08999372 -23.67248535 34.2056427 C-26.577035 37.12918165 -29.4662467 40.06742452 -32.35241699 43.00909424 C-35.30647708 46.01452132 -38.27494028 49.00564883 -41.2421875 51.99804688 C-47.05057052 57.85987502 -52.84281242 63.73733122 -58.625 69.625 C-57.00723883 73.04982707 -55.20156756 75.28190522 -52.4921875 77.953125 C-51.28369141 79.15195313 -51.28369141 79.15195313 -50.05078125 80.375 C-49.20902344 81.2 -48.36726563 82.025 -47.5 82.875 C-46.22576172 84.13570312 -46.22576172 84.13570312 -44.92578125 85.421875 C-42.82995077 87.49415683 -40.72959287 89.56162393 -38.625 91.625 C-34.92304486 90.07063141 -32.54184332 87.80708903 -29.70458984 84.99511719 C-29.22929337 84.52653793 -28.75399689 84.05795868 -28.26429749 83.57518005 C-26.69951818 82.02935035 -25.14234523 80.47613037 -23.5859375 78.921875 C-22.49800035 77.84036749 -21.40991421 76.75900984 -20.32168579 75.67779541 C-18.04356279 73.4116373 -15.76960188 71.14139309 -13.49804688 68.86865234 C-10.59176755 65.96216978 -7.67197584 63.06968828 -4.74843407 60.18058395 C-2.4973196 57.95174429 -0.25539224 55.71383507 1.98408127 53.47330475 C3.05652958 52.4032112 4.13221038 51.33634684 5.21120071 50.27285004 C6.72163749 48.78208608 8.21878322 47.27908421 9.71337891 45.77246094 C10.5673526 44.92133728 11.42132629 44.07021362 12.30117798 43.19329834 C15.56041479 39.15693823 16.375 35.82748509 16.375 30.6875 C15.56143904 25.86160429 13.205701 22.61057727 9.375 19.625 C-1.330092 14.63518852 -7.48923559 17.97533696 -15.61740875 26.03767872 Z " fill="#000000" transform="translate(479.625,23.375)"/>
<path d="M0 0 C1.32396412 -0.00935994 1.32396412 -0.00935994 2.67467499 -0.01890898 C5.63820449 -0.03488939 8.60091723 -0.02221496 11.56445312 -0.00964355 C13.68660971 -0.01506242 15.80876253 -0.02218375 17.9309082 -0.03088379 C23.69944448 -0.04914793 29.46769519 -0.04203675 35.23623657 -0.02936745 C41.26687401 -0.01925584 47.29748663 -0.02862801 53.328125 -0.03491211 C63.45642497 -0.04219387 73.58460835 -0.03258689 83.71289062 -0.0135498 C95.43046156 0.00821986 107.14775411 0.00116887 118.8653183 -0.02085543 C128.9172072 -0.03899431 138.96901219 -0.04157513 149.02091217 -0.03110075 C155.02822942 -0.02485753 161.03541572 -0.024053 167.04272461 -0.0372467 C172.68986066 -0.04878253 178.33663703 -0.04082075 183.98373413 -0.01766968 C186.05902509 -0.01237048 188.1343462 -0.01391694 190.20962524 -0.02272034 C193.03729732 -0.0336115 195.86380863 -0.01999008 198.69140625 0 C199.51747124 -0.00892289 200.34353622 -0.01784577 201.19463348 -0.02703905 C204.83167641 0.02301691 206.91442064 0.18000489 209.85339355 2.41468048 C211.46952122 4.68161351 211.88871997 5.75485648 211.84570312 8.50793457 C211.86117187 9.49793457 211.86117187 9.49793457 211.87695312 10.50793457 C211.06965744 13.54716539 209.85321503 14.6013244 207.34570312 16.50793457 C204.33853774 16.90065775 201.69819313 17.04834748 198.69140625 17.01586914 C197.8087635 17.0221091 196.92612076 17.02834907 196.01673126 17.03477812 C193.05320176 17.05075853 190.09048902 17.0380841 187.12695312 17.0255127 C185.00479654 17.03093156 182.88264372 17.03805289 180.76049805 17.04675293 C174.99196177 17.06501707 169.22371106 17.05790589 163.45516968 17.04523659 C157.42453224 17.03512498 151.39391962 17.04449715 145.36328125 17.05078125 C135.23498128 17.05806301 125.1067979 17.04845603 114.97851562 17.02941895 C103.26094469 17.00764928 91.54365214 17.01470027 79.82608795 17.03672457 C69.77419905 17.05486346 59.72239406 17.05744427 49.67049408 17.04696989 C43.66317683 17.04072667 37.65599053 17.03992214 31.64868164 17.05311584 C26.00154559 17.06465167 20.35476922 17.05668989 14.70767212 17.03353882 C12.63238116 17.02823962 10.55706005 17.02978609 8.48178101 17.03858948 C5.65410893 17.04948065 2.82759762 17.03585923 0 17.01586914 C-1.23909748 17.02925347 -1.23909748 17.02925347 -2.50322723 17.04290819 C-6.14027016 16.99285223 -8.22301439 16.83586425 -11.1619873 14.60118866 C-12.77811497 12.33425563 -13.19731372 11.26101266 -13.15429688 8.50793457 C-13.16976562 7.51793457 -13.16976562 7.51793457 -13.18554688 6.50793457 C-11.41266137 -0.16645794 -5.87159192 -0.06342304 0 0 Z " fill="#000000" transform="translate(94.654296875,139.4920654296875)"/>
<path d="M0 0 C1.0035551 -0.00512655 1.0035551 -0.00512655 2.02738404 -0.01035666 C4.26798062 -0.01694253 6.50737769 0.00505006 8.74786377 0.0269165 C10.3543444 0.02804484 11.96082709 0.02741139 13.56730652 0.02514648 C17.92868126 0.02399786 22.28961681 0.04753108 26.6508894 0.07544231 C31.20860257 0.10043124 35.76632558 0.10279598 40.32409668 0.10754395 C48.9549319 0.11998111 57.58556469 0.15281272 66.21631074 0.1929419 C76.04206463 0.23763658 85.86782813 0.25964085 95.69365835 0.27972364 C115.90617579 0.32154471 136.11851094 0.39191116 156.33087158 0.48101807 C154.97618897 2.11358429 153.61122886 3.73828099 152.20765209 5.32900715 C150.90786535 6.81940799 149.65417464 8.35079968 148.43984699 9.91161633 C144.23764943 14.85121196 141.20680824 17.04047711 134.65684509 17.59022522 C132.02279432 17.62841952 129.41771346 17.61885006 126.78668213 17.56622314 C125.33371967 17.57023944 123.8807636 17.57816516 122.42784119 17.5896759 C118.50585542 17.60924304 114.58621702 17.57303405 110.66454673 17.52528977 C106.55318378 17.48372099 102.44187112 17.49035944 98.33033752 17.4907074 C91.43289903 17.48421999 84.53635741 17.4433265 77.63922119 17.37969971 C69.66652265 17.30637907 61.69470452 17.2783858 53.72168893 17.27655107 C45.2231878 17.27430286 36.72501392 17.24156563 28.2266314 17.19853759 C25.78031505 17.18805028 23.33403588 17.18299164 20.88770103 17.17902565 C17.04684768 17.17111665 13.20667366 17.14259948 9.36607552 17.09808922 C7.95680856 17.08480899 6.54745955 17.07827484 5.13813019 17.07896423 C3.21532163 17.07868789 1.29257359 17.05134132 -0.63002014 17.02259827 C-1.7060465 17.01459607 -2.78207285 17.00659388 -3.89070606 16.99834919 C-7.33422949 16.35717891 -8.52216629 15.19253762 -10.66912842 12.48101807 C-11.20037842 10.48101807 -11.20037842 10.48101807 -11.16912842 8.48101807 C-11.18459717 7.49101807 -11.18459717 7.49101807 -11.20037842 6.48101807 C-9.64958076 0.642721 -5.38792048 -0.01657822 0 0 Z " fill="#000000" transform="translate(92.66912841796875,219.51898193359375)"/>
<path d="M0 0 C7.47927469 4.85162617 13.80094616 12.64880753 20.08422852 18.95385742 C21.95409753 20.82914563 23.82932899 22.69895465 25.70507812 24.56835938 C26.89615461 25.76009565 28.0869214 26.95214155 29.27734375 28.14453125 C29.83767807 28.70284134 30.39801239 29.26115143 30.97532654 29.83638 C35.17394119 34.06070993 36.09553793 35.93975691 36.42578125 41.9296875 C35.78463353 45.04719475 34.47261295 45.97731959 32 48 C29.02982644 49.36988369 25.95897892 50.37046483 22.8515625 51.3828125 C21.96141449 51.68315399 21.07126648 51.98349548 20.15414429 52.29293823 C17.31469577 53.24812694 14.47008433 54.18674799 11.625 55.125 C9.71838597 55.76323646 7.81213148 56.40254807 5.90625 57.04296875 C1.63794016 58.47470603 -2.63346083 59.89662796 -6.9090271 61.30654907 C-8.75524702 61.91883004 -10.59676222 62.54525801 -12.4375 63.17382812 C-16.34738042 64.43440695 -19.94341923 64.59270725 -24 64 C-26.5625 62.5625 -26.5625 62.5625 -28 60 C-28.94934907 53.03814516 -27.07575219 46.9682035 -24.82421875 40.453125 C-24.4983931 39.47889587 -24.17256744 38.50466675 -23.83686829 37.50091553 C-23.14966197 35.45499859 -22.45596396 33.41125179 -21.75610352 31.36962891 C-20.68750489 28.25001427 -19.64002532 25.12390863 -18.59570312 21.99609375 C-17.92309872 20.00219095 -17.24931109 18.00868681 -16.57421875 16.015625 C-16.26159592 15.08534485 -15.94897308 14.1550647 -15.62687683 13.19659424 C-10.34848493 -2.13292933 -10.34848493 -2.13292933 0 0 Z M-1 25 C-1.83698386 27.45714547 -2.66972424 29.91558857 -3.5 32.375 C-3.73847656 33.07367188 -3.97695312 33.77234375 -4.22265625 34.4921875 C-5.53735912 38.16403079 -5.53735912 38.16403079 -6 42 C2.56533704 39.71845678 2.56533704 39.71845678 11 37 C9.53033642 33.60140297 7.61962486 31.35036291 5 28.75 C4.29875 28.04359375 3.5975 27.3371875 2.875 26.609375 C1.15889232 24.78289601 1.15889232 24.78289601 -1 25 Z " fill="#000000" transform="translate(168,332)"/>
<path d="M0 0 C0.81013046 -0.00058411 1.62026093 -0.00116821 2.4549408 -0.00177002 C5.12827652 0.00101304 7.80049228 0.03211467 10.47363281 0.06347656 C12.32879019 0.07093818 14.18395546 0.07663149 16.03912354 0.08062744 C20.91865858 0.09589001 25.79771634 0.1351772 30.67706299 0.17944336 C35.65736433 0.22038262 40.6377429 0.23863558 45.61816406 0.25878906 C55.38790486 0.30167084 65.15729162 0.36992974 74.92675781 0.45410156 C74.63027344 1.15921875 74.33378906 1.86433594 74.02832031 2.59082031 C72.92551801 5.45732417 72.08834387 8.29902688 71.30175781 11.26660156 C71.04136719 12.24242187 70.78097656 13.21824219 70.51269531 14.22363281 C70.31933594 14.9596875 70.12597656 15.69574219 69.92675781 16.45410156 C59.82598268 16.54675766 49.72530856 16.61784423 39.6241951 16.66135025 C34.93388108 16.68223042 30.24385769 16.71055578 25.55371094 16.75585938 C21.02793265 16.799302 16.50243401 16.82323543 11.97646332 16.83361053 C10.24925076 16.84100478 8.52205362 16.85544402 6.79496002 16.87702179 C4.37664142 16.9060355 1.95948011 16.91005854 -0.45898438 16.90820312 C-1.17396088 16.92258423 -1.88893738 16.93696533 -2.62557983 16.95178223 C-6.04981647 16.9233316 -7.77857718 16.68370922 -10.51593018 14.55072021 C-12.20442191 12.27749351 -12.61691823 11.24936838 -12.57324219 8.45410156 C-12.58871094 7.46410156 -12.58871094 7.46410156 -12.60449219 6.45410156 C-10.89383931 0.01399661 -5.71594971 -0.10791441 0 0 Z " fill="#000000" transform="translate(94.0732421875,299.5458984375)"/>
<path d="M0 0 C0.88218201 0.00565979 1.76436401 0.01131958 2.67327881 0.01715088 C5.48586713 0.03950909 8.29717295 0.08970368 11.109375 0.140625 C13.01821074 0.16069075 14.92706649 0.17894139 16.8359375 0.1953125 C21.51090945 0.239372 26.18492492 0.30839516 30.859375 0.390625 C30.859375 5.670625 30.859375 10.950625 30.859375 16.390625 C25.2360548 16.48954674 19.61324167 16.56211842 13.98925781 16.61035156 C12.07640765 16.63045952 10.16361889 16.65775007 8.25097656 16.69238281 C5.50049689 16.74093749 2.75083023 16.76360158 0 16.78125 C-0.85430603 16.80189514 -1.70861206 16.82254028 -2.58880615 16.84381104 C-8.53205939 16.84605405 -8.53205939 16.84605405 -11.67871094 14.49121094 C-13.25760088 12.22254543 -13.68336279 11.12584356 -13.640625 8.390625 C-13.65609375 7.400625 -13.65609375 7.400625 -13.671875 6.390625 C-11.80481605 -0.63830283 -6.00080056 -0.14501522 0 0 Z " fill="#000000" transform="translate(95.140625,379.609375)"/>
<path d="M0 0 C2.5 1.5 2.5 1.5 4 4 C4.791013 8.02098277 4.62153384 10.96411027 2.5 14.5 C-1.03588973 16.62153384 -3.97901723 16.791013 -8 16 C-10.5 14.5 -10.5 14.5 -12 12 C-12.791013 7.97901723 -12.62153384 5.03588973 -10.5 1.5 C-6.96411027 -0.62153384 -4.02098277 -0.791013 0 0 Z " fill="#000000" transform="translate(46,448)"/>
<path d="M0 0 C2.5 1.5 2.5 1.5 4 4 C4.791013 8.02098277 4.62153384 10.96411027 2.5 14.5 C-1.03588973 16.62153384 -3.97901723 16.791013 -8 16 C-10.5 14.5 -10.5 14.5 -12 12 C-12.791013 7.97901723 -12.62153384 5.03588973 -10.5 1.5 C-6.96411027 -0.62153384 -4.02098277 -0.791013 0 0 Z " fill="#000000" transform="translate(46,416)"/>
<path d="M0 0 C2.5 1.5 2.5 1.5 4 4 C4.791013 8.02098277 4.62153384 10.96411027 2.5 14.5 C-1.03588973 16.62153384 -3.97901723 16.791013 -8 16 C-10.5 14.5 -10.5 14.5 -12 12 C-12.791013 7.97901723 -12.62153384 5.03588973 -10.5 1.5 C-6.96411027 -0.62153384 -4.02098277 -0.791013 0 0 Z " fill="#000000" transform="translate(46,384)"/>
<path d="M0 0 C2.5 1.5 2.5 1.5 4 4 C4.791013 8.02098277 4.62153384 10.96411027 2.5 14.5 C-1.03588973 16.62153384 -3.97901723 16.791013 -8 16 C-10.5 14.5 -10.5 14.5 -12 12 C-12.791013 7.97901723 -12.62153384 5.03588973 -10.5 1.5 C-6.96411027 -0.62153384 -4.02098277 -0.791013 0 0 Z " fill="#000000" transform="translate(46,352)"/>
<path d="M0 0 C2.5 1.5 2.5 1.5 4 4 C4.791013 8.02098277 4.62153384 10.96411027 2.5 14.5 C-1.03588973 16.62153384 -3.97901723 16.791013 -8 16 C-10.5 14.5 -10.5 14.5 -12 12 C-12.791013 7.97901723 -12.62153384 5.03588973 -10.5 1.5 C-6.96411027 -0.62153384 -4.02098277 -0.791013 0 0 Z " fill="#000000" transform="translate(46,320)"/>
<path d="M0 0 C2.5 1.5 2.5 1.5 4 4 C4.791013 8.02098277 4.62153384 10.96411027 2.5 14.5 C-1.03588973 16.62153384 -3.97901723 16.791013 -8 16 C-10.5 14.5 -10.5 14.5 -12 12 C-12.791013 7.97901723 -12.62153384 5.03588973 -10.5 1.5 C-6.96411027 -0.62153384 -4.02098277 -0.791013 0 0 Z " fill="#000000" transform="translate(46,288)"/>
<path d="M0 0 C2.5 1.5 2.5 1.5 4 4 C4.791013 8.02098277 4.62153384 10.96411027 2.5 14.5 C-1.03588973 16.62153384 -3.97901723 16.791013 -8 16 C-10.5 14.5 -10.5 14.5 -12 12 C-12.791013 7.97901723 -12.62153384 5.03588973 -10.5 1.5 C-6.96411027 -0.62153384 -4.02098277 -0.791013 0 0 Z " fill="#000000" transform="translate(46,256)"/>
<path d="M0 0 C2.5 1.5 2.5 1.5 4 4 C4.791013 8.02098277 4.62153384 10.96411027 2.5 14.5 C-1.03588973 16.62153384 -3.97901723 16.791013 -8 16 C-10.5 14.5 -10.5 14.5 -12 12 C-12.791013 7.97901723 -12.62153384 5.03588973 -10.5 1.5 C-6.96411027 -0.62153384 -4.02098277 -0.791013 0 0 Z " fill="#000000" transform="translate(46,224)"/>
<path d="M0 0 C2.5 1.5 2.5 1.5 4 4 C4.791013 8.02098277 4.62153384 10.96411027 2.5 14.5 C-1.03588973 16.62153384 -3.97901723 16.791013 -8 16 C-10.5 14.5 -10.5 14.5 -12 12 C-12.791013 7.97901723 -12.62153384 5.03588973 -10.5 1.5 C-6.96411027 -0.62153384 -4.02098277 -0.791013 0 0 Z " fill="#000000" transform="translate(46,192)"/>
<path d="M0 0 C2.5 1.5 2.5 1.5 4 4 C4.791013 8.02098277 4.62153384 10.96411027 2.5 14.5 C-1.03588973 16.62153384 -3.97901723 16.791013 -8 16 C-10.5 14.5 -10.5 14.5 -12 12 C-12.791013 7.97901723 -12.62153384 5.03588973 -10.5 1.5 C-6.96411027 -0.62153384 -4.02098277 -0.791013 0 0 Z " fill="#000000" transform="translate(46,160)"/>
<path d="M0 0 C2.5 1.5 2.5 1.5 4 4 C4.791013 8.02098277 4.62153384 10.96411027 2.5 14.5 C-1.03588973 16.62153384 -3.97901723 16.791013 -8 16 C-10.5 14.5 -10.5 14.5 -12 12 C-12.791013 7.97901723 -12.62153384 5.03588973 -10.5 1.5 C-6.96411027 -0.62153384 -4.02098277 -0.791013 0 0 Z " fill="#000000" transform="translate(46,128)"/>
<path d="M0 0 C2.5 1.5 2.5 1.5 4 4 C4.791013 8.02098277 4.62153384 10.96411027 2.5 14.5 C-1.03588973 16.62153384 -3.97901723 16.791013 -8 16 C-10.5 14.5 -10.5 14.5 -12 12 C-12.791013 7.97901723 -12.62153384 5.03588973 -10.5 1.5 C-6.96411027 -0.62153384 -4.02098277 -0.791013 0 0 Z " fill="#000000" transform="translate(46,96)"/>
<path d="M0 0 C2.5 1.5 2.5 1.5 4 4 C4.791013 8.02098277 4.62153384 10.96411027 2.5 14.5 C-1.03588973 16.62153384 -3.97901723 16.791013 -8 16 C-10.5 14.5 -10.5 14.5 -12 12 C-12.791013 7.97901723 -12.62153384 5.03588973 -10.5 1.5 C-6.96411027 -0.62153384 -4.02098277 -0.791013 0 0 Z " fill="#000000" transform="translate(46,64)"/>
<path d="M0 0 C2.5 1.5 2.5 1.5 4 4 C4.791013 8.02098277 4.62153384 10.96411027 2.5 14.5 C-1.03588973 16.62153384 -3.97901723 16.791013 -8 16 C-10.5 14.5 -10.5 14.5 -12 12 C-12.791013 7.97901723 -12.62153384 5.03588973 -10.5 1.5 C-6.96411027 -0.62153384 -4.02098277 -0.791013 0 0 Z " fill="#000000" transform="translate(238,32)"/>
<path d="M0 0 C2.5 1.5 2.5 1.5 4 4 C4.791013 8.02098277 4.62153384 10.96411027 2.5 14.5 C-1.03588973 16.62153384 -3.97901723 16.791013 -8 16 C-10.5 14.5 -10.5 14.5 -12 12 C-12.791013 7.97901723 -12.62153384 5.03588973 -10.5 1.5 C-6.96411027 -0.62153384 -4.02098277 -0.791013 0 0 Z " fill="#000000" transform="translate(206,32)"/>
<path d="M0 0 C2.5 1.5 2.5 1.5 4 4 C4.791013 8.02098277 4.62153384 10.96411027 2.5 14.5 C-1.03588973 16.62153384 -3.97901723 16.791013 -8 16 C-10.5 14.5 -10.5 14.5 -12 12 C-12.791013 7.97901723 -12.62153384 5.03588973 -10.5 1.5 C-6.96411027 -0.62153384 -4.02098277 -0.791013 0 0 Z " fill="#000000" transform="translate(174,32)"/>
<path d="M0 0 C2.5 1.5 2.5 1.5 4 4 C4.791013 8.02098277 4.62153384 10.96411027 2.5 14.5 C-1.03588973 16.62153384 -3.97901723 16.791013 -8 16 C-10.5 14.5 -10.5 14.5 -12 12 C-12.791013 7.97901723 -12.62153384 5.03588973 -10.5 1.5 C-6.96411027 -0.62153384 -4.02098277 -0.791013 0 0 Z " fill="#000000" transform="translate(142,32)"/>
<path d="M0 0 C2.5 1.5 2.5 1.5 4 4 C4.791013 8.02098277 4.62153384 10.96411027 2.5 14.5 C-1.03588973 16.62153384 -3.97901723 16.791013 -8 16 C-10.5 14.5 -10.5 14.5 -12 12 C-12.791013 7.97901723 -12.62153384 5.03588973 -10.5 1.5 C-6.96411027 -0.62153384 -4.02098277 -0.791013 0 0 Z " fill="#000000" transform="translate(110,32)"/>
<path d="M0 0 C2.5 1.5 2.5 1.5 4 4 C4.791013 8.02098277 4.62153384 10.96411027 2.5 14.5 C-1.03588973 16.62153384 -3.97901723 16.791013 -8 16 C-10.5 14.5 -10.5 14.5 -12 12 C-12.791013 7.97901723 -12.62153384 5.03588973 -10.5 1.5 C-6.96411027 -0.62153384 -4.02098277 -0.791013 0 0 Z " fill="#000000" transform="translate(78,32)"/>
<path d="M0 0 C2.5 1.5 2.5 1.5 4 4 C4.791013 8.02098277 4.62153384 10.96411027 2.5 14.5 C-1.03588973 16.62153384 -3.97901723 16.791013 -8 16 C-10.5 14.5 -10.5 14.5 -12 12 C-12.791013 7.97901723 -12.62153384 5.03588973 -10.5 1.5 C-6.96411027 -0.62153384 -4.02098277 -0.791013 0 0 Z " fill="#000000" transform="translate(46,32)"/>
<path d="M0 0 C1.8203125 0.84375 1.8203125 0.84375 2.8203125 2.84375 C3.39748977 10.00074809 3.39748977 10.00074809 1.28515625 13.0859375 C-2.06564098 15.47557102 -4.98226478 15.28776322 -8.9296875 15.09375 C-9.62707031 15.07570313 -10.32445312 15.05765625 -11.04296875 15.0390625 C-12.75580289 14.99213554 -14.46792574 14.92039605 -16.1796875 14.84375 C-12.90614975 10.9155047 -9.55763365 7.06973017 -6.0546875 3.34375 C-5.41273438 2.6528125 -4.77078125 1.961875 -4.109375 1.25 C-2.1796875 -0.15625 -2.1796875 -0.15625 0 0 Z " fill="#000000" transform="translate(303.1796875,301.15625)"/>
</svg>
